G04 #@! TF.GenerationSoftware,KiCad,Pcbnew,(5.1.5)-3*
G04 #@! TF.CreationDate,2021-01-22T17:28:22+08:00*
G04 #@! TF.ProjectId,Pump_Driver,50756d70-5f44-4726-9976-65722e6b6963,rev?*
G04 #@! TF.SameCoordinates,Original*
G04 #@! TF.FileFunction,Legend,Top*
G04 #@! TF.FilePolarity,Positive*
%FSLAX46Y46*%
G04 Gerber Fmt 4.6, Leading zero omitted, Abs format (unit mm)*
G04 Created by KiCad (PCBNEW (5.1.5)-3) date 2021-01-22 17:28:22*
%MOMM*%
%LPD*%
G04 APERTURE LIST*
%ADD10C,0.120000*%
%ADD11C,0.150000*%
%ADD12C,0.250000*%
%ADD13C,0.200000*%
%ADD14C,0.400000*%
G04 APERTURE END LIST*
D10*
X82580815Y-112014000D02*
G75*
G03X82580815Y-112014000I-538815J0D01*
G01*
D11*
X96403333Y-97471666D02*
X96170000Y-97138333D01*
X96003333Y-97471666D02*
X96003333Y-96771666D01*
X96270000Y-96771666D01*
X96336666Y-96805000D01*
X96370000Y-96838333D01*
X96403333Y-96905000D01*
X96403333Y-97005000D01*
X96370000Y-97071666D01*
X96336666Y-97105000D01*
X96270000Y-97138333D01*
X96003333Y-97138333D01*
X96636666Y-96771666D02*
X97103333Y-97471666D01*
X97103333Y-96771666D02*
X96636666Y-97471666D01*
X93446666Y-96898666D02*
X93846666Y-96898666D01*
X93646666Y-97598666D02*
X93646666Y-96898666D01*
X94013333Y-96898666D02*
X94480000Y-97598666D01*
X94480000Y-96898666D02*
X94013333Y-97598666D01*
X90906666Y-96932000D02*
X90840000Y-96898666D01*
X90740000Y-96898666D01*
X90640000Y-96932000D01*
X90573333Y-96998666D01*
X90540000Y-97065333D01*
X90506666Y-97198666D01*
X90506666Y-97298666D01*
X90540000Y-97432000D01*
X90573333Y-97498666D01*
X90640000Y-97565333D01*
X90740000Y-97598666D01*
X90806666Y-97598666D01*
X90906666Y-97565333D01*
X90940000Y-97532000D01*
X90940000Y-97298666D01*
X90806666Y-97298666D01*
X91240000Y-97598666D02*
X91240000Y-96898666D01*
X91640000Y-97598666D01*
X91640000Y-96898666D01*
X91973333Y-97598666D02*
X91973333Y-96898666D01*
X92140000Y-96898666D01*
X92240000Y-96932000D01*
X92306666Y-96998666D01*
X92340000Y-97065333D01*
X92373333Y-97198666D01*
X92373333Y-97298666D01*
X92340000Y-97432000D01*
X92306666Y-97498666D01*
X92240000Y-97565333D01*
X92140000Y-97598666D01*
X91973333Y-97598666D01*
X88639666Y-96898666D02*
X88306333Y-96898666D01*
X88273000Y-97232000D01*
X88306333Y-97198666D01*
X88373000Y-97165333D01*
X88539666Y-97165333D01*
X88606333Y-97198666D01*
X88639666Y-97232000D01*
X88673000Y-97298666D01*
X88673000Y-97465333D01*
X88639666Y-97532000D01*
X88606333Y-97565333D01*
X88539666Y-97598666D01*
X88373000Y-97598666D01*
X88306333Y-97565333D01*
X88273000Y-97532000D01*
X88873000Y-96898666D02*
X89106333Y-97598666D01*
X89339666Y-96898666D01*
D12*
X104267047Y-96718428D02*
X105028952Y-96718428D01*
D13*
X101600047Y-96718428D02*
X102361952Y-96718428D01*
X101981000Y-97099380D02*
X101981000Y-96337476D01*
D11*
X98758904Y-91003380D02*
X98758904Y-90003380D01*
X99235095Y-90336714D02*
X99235095Y-91003380D01*
X99235095Y-90431952D02*
X99282714Y-90384333D01*
X99377952Y-90336714D01*
X99520809Y-90336714D01*
X99616047Y-90384333D01*
X99663666Y-90479571D01*
X99663666Y-91003380D01*
X100139857Y-90336714D02*
X100139857Y-91336714D01*
X100139857Y-90384333D02*
X100235095Y-90336714D01*
X100425571Y-90336714D01*
X100520809Y-90384333D01*
X100568428Y-90431952D01*
X100616047Y-90527190D01*
X100616047Y-90812904D01*
X100568428Y-90908142D01*
X100520809Y-90955761D01*
X100425571Y-91003380D01*
X100235095Y-91003380D01*
X100139857Y-90955761D01*
X101473190Y-90336714D02*
X101473190Y-91003380D01*
X101044619Y-90336714D02*
X101044619Y-90860523D01*
X101092238Y-90955761D01*
X101187476Y-91003380D01*
X101330333Y-91003380D01*
X101425571Y-90955761D01*
X101473190Y-90908142D01*
X101806523Y-90336714D02*
X102187476Y-90336714D01*
X101949380Y-90003380D02*
X101949380Y-90860523D01*
X101997000Y-90955761D01*
X102092238Y-91003380D01*
X102187476Y-91003380D01*
X103282714Y-91003380D02*
X103282714Y-90003380D01*
X103663666Y-90003380D01*
X103758904Y-90051000D01*
X103806523Y-90098619D01*
X103854142Y-90193857D01*
X103854142Y-90336714D01*
X103806523Y-90431952D01*
X103758904Y-90479571D01*
X103663666Y-90527190D01*
X103282714Y-90527190D01*
X104425571Y-91003380D02*
X104330333Y-90955761D01*
X104282714Y-90908142D01*
X104235095Y-90812904D01*
X104235095Y-90527190D01*
X104282714Y-90431952D01*
X104330333Y-90384333D01*
X104425571Y-90336714D01*
X104568428Y-90336714D01*
X104663666Y-90384333D01*
X104711285Y-90431952D01*
X104758904Y-90527190D01*
X104758904Y-90812904D01*
X104711285Y-90908142D01*
X104663666Y-90955761D01*
X104568428Y-91003380D01*
X104425571Y-91003380D01*
X105092238Y-90336714D02*
X105282714Y-91003380D01*
X105473190Y-90527190D01*
X105663666Y-91003380D01*
X105854142Y-90336714D01*
X106616047Y-90955761D02*
X106520809Y-91003380D01*
X106330333Y-91003380D01*
X106235095Y-90955761D01*
X106187476Y-90860523D01*
X106187476Y-90479571D01*
X106235095Y-90384333D01*
X106330333Y-90336714D01*
X106520809Y-90336714D01*
X106616047Y-90384333D01*
X106663666Y-90479571D01*
X106663666Y-90574809D01*
X106187476Y-90670047D01*
X107092238Y-91003380D02*
X107092238Y-90336714D01*
X107092238Y-90527190D02*
X107139857Y-90431952D01*
X107187476Y-90384333D01*
X107282714Y-90336714D01*
X107377952Y-90336714D01*
D14*
X119619857Y-91582761D02*
X119619857Y-89582761D01*
X120381761Y-89582761D01*
X120572238Y-89678000D01*
X120667476Y-89773238D01*
X120762714Y-89963714D01*
X120762714Y-90249428D01*
X120667476Y-90439904D01*
X120572238Y-90535142D01*
X120381761Y-90630380D01*
X119619857Y-90630380D01*
X122477000Y-90249428D02*
X122477000Y-91582761D01*
X121619857Y-90249428D02*
X121619857Y-91297047D01*
X121715095Y-91487523D01*
X121905571Y-91582761D01*
X122191285Y-91582761D01*
X122381761Y-91487523D01*
X122477000Y-91392285D01*
X123429380Y-91582761D02*
X123429380Y-90249428D01*
X123429380Y-90439904D02*
X123524619Y-90344666D01*
X123715095Y-90249428D01*
X124000809Y-90249428D01*
X124191285Y-90344666D01*
X124286523Y-90535142D01*
X124286523Y-91582761D01*
X124286523Y-90535142D02*
X124381761Y-90344666D01*
X124572238Y-90249428D01*
X124857952Y-90249428D01*
X125048428Y-90344666D01*
X125143666Y-90535142D01*
X125143666Y-91582761D01*
X126096047Y-90249428D02*
X126096047Y-92249428D01*
X126096047Y-90344666D02*
X126286523Y-90249428D01*
X126667476Y-90249428D01*
X126857952Y-90344666D01*
X126953190Y-90439904D01*
X127048428Y-90630380D01*
X127048428Y-91201809D01*
X126953190Y-91392285D01*
X126857952Y-91487523D01*
X126667476Y-91582761D01*
X126286523Y-91582761D01*
X126096047Y-91487523D01*
X129429380Y-91582761D02*
X129429380Y-89582761D01*
X129905571Y-89582761D01*
X130191285Y-89678000D01*
X130381761Y-89868476D01*
X130477000Y-90058952D01*
X130572238Y-90439904D01*
X130572238Y-90725619D01*
X130477000Y-91106571D01*
X130381761Y-91297047D01*
X130191285Y-91487523D01*
X129905571Y-91582761D01*
X129429380Y-91582761D01*
X131429380Y-91582761D02*
X131429380Y-90249428D01*
X131429380Y-90630380D02*
X131524619Y-90439904D01*
X131619857Y-90344666D01*
X131810333Y-90249428D01*
X132000809Y-90249428D01*
X132667476Y-91582761D02*
X132667476Y-90249428D01*
X132667476Y-89582761D02*
X132572238Y-89678000D01*
X132667476Y-89773238D01*
X132762714Y-89678000D01*
X132667476Y-89582761D01*
X132667476Y-89773238D01*
X133429380Y-90249428D02*
X133905571Y-91582761D01*
X134381761Y-90249428D01*
X135905571Y-91487523D02*
X135715095Y-91582761D01*
X135334142Y-91582761D01*
X135143666Y-91487523D01*
X135048428Y-91297047D01*
X135048428Y-90535142D01*
X135143666Y-90344666D01*
X135334142Y-90249428D01*
X135715095Y-90249428D01*
X135905571Y-90344666D01*
X136000809Y-90535142D01*
X136000809Y-90725619D01*
X135048428Y-90916095D01*
X136857952Y-91582761D02*
X136857952Y-90249428D01*
X136857952Y-90630380D02*
X136953190Y-90439904D01*
X137048428Y-90344666D01*
X137238904Y-90249428D01*
X137429380Y-90249428D01*
X140286523Y-90535142D02*
X140572238Y-90630380D01*
X140667476Y-90725619D01*
X140762714Y-90916095D01*
X140762714Y-91201809D01*
X140667476Y-91392285D01*
X140572238Y-91487523D01*
X140381761Y-91582761D01*
X139619857Y-91582761D01*
X139619857Y-89582761D01*
X140286523Y-89582761D01*
X140477000Y-89678000D01*
X140572238Y-89773238D01*
X140667476Y-89963714D01*
X140667476Y-90154190D01*
X140572238Y-90344666D01*
X140477000Y-90439904D01*
X140286523Y-90535142D01*
X139619857Y-90535142D01*
X141905571Y-91582761D02*
X141715095Y-91487523D01*
X141619857Y-91392285D01*
X141524619Y-91201809D01*
X141524619Y-90630380D01*
X141619857Y-90439904D01*
X141715095Y-90344666D01*
X141905571Y-90249428D01*
X142191285Y-90249428D01*
X142381761Y-90344666D01*
X142477000Y-90439904D01*
X142572238Y-90630380D01*
X142572238Y-91201809D01*
X142477000Y-91392285D01*
X142381761Y-91487523D01*
X142191285Y-91582761D01*
X141905571Y-91582761D01*
X144286523Y-91582761D02*
X144286523Y-90535142D01*
X144191285Y-90344666D01*
X144000809Y-90249428D01*
X143619857Y-90249428D01*
X143429380Y-90344666D01*
X144286523Y-91487523D02*
X144096047Y-91582761D01*
X143619857Y-91582761D01*
X143429380Y-91487523D01*
X143334142Y-91297047D01*
X143334142Y-91106571D01*
X143429380Y-90916095D01*
X143619857Y-90820857D01*
X144096047Y-90820857D01*
X144286523Y-90725619D01*
X145238904Y-91582761D02*
X145238904Y-90249428D01*
X145238904Y-90630380D02*
X145334142Y-90439904D01*
X145429380Y-90344666D01*
X145619857Y-90249428D01*
X145810333Y-90249428D01*
X147334142Y-91582761D02*
X147334142Y-89582761D01*
X147334142Y-91487523D02*
X147143666Y-91582761D01*
X146762714Y-91582761D01*
X146572238Y-91487523D01*
X146477000Y-91392285D01*
X146381761Y-91201809D01*
X146381761Y-90630380D01*
X146477000Y-90439904D01*
X146572238Y-90344666D01*
X146762714Y-90249428D01*
X147143666Y-90249428D01*
X147334142Y-90344666D01*
D11*
X90860809Y-91209761D02*
X91003666Y-91257380D01*
X91241761Y-91257380D01*
X91337000Y-91209761D01*
X91384619Y-91162142D01*
X91432238Y-91066904D01*
X91432238Y-90971666D01*
X91384619Y-90876428D01*
X91337000Y-90828809D01*
X91241761Y-90781190D01*
X91051285Y-90733571D01*
X90956047Y-90685952D01*
X90908428Y-90638333D01*
X90860809Y-90543095D01*
X90860809Y-90447857D01*
X90908428Y-90352619D01*
X90956047Y-90305000D01*
X91051285Y-90257380D01*
X91289380Y-90257380D01*
X91432238Y-90305000D01*
X92241761Y-91209761D02*
X92146523Y-91257380D01*
X91956047Y-91257380D01*
X91860809Y-91209761D01*
X91813190Y-91114523D01*
X91813190Y-90733571D01*
X91860809Y-90638333D01*
X91956047Y-90590714D01*
X92146523Y-90590714D01*
X92241761Y-90638333D01*
X92289380Y-90733571D01*
X92289380Y-90828809D01*
X91813190Y-90924047D01*
X92717952Y-91257380D02*
X92717952Y-90590714D01*
X92717952Y-90781190D02*
X92765571Y-90685952D01*
X92813190Y-90638333D01*
X92908428Y-90590714D01*
X93003666Y-90590714D01*
X93337000Y-91257380D02*
X93337000Y-90590714D01*
X93337000Y-90257380D02*
X93289380Y-90305000D01*
X93337000Y-90352619D01*
X93384619Y-90305000D01*
X93337000Y-90257380D01*
X93337000Y-90352619D01*
X94241761Y-91257380D02*
X94241761Y-90733571D01*
X94194142Y-90638333D01*
X94098904Y-90590714D01*
X93908428Y-90590714D01*
X93813190Y-90638333D01*
X94241761Y-91209761D02*
X94146523Y-91257380D01*
X93908428Y-91257380D01*
X93813190Y-91209761D01*
X93765571Y-91114523D01*
X93765571Y-91019285D01*
X93813190Y-90924047D01*
X93908428Y-90876428D01*
X94146523Y-90876428D01*
X94241761Y-90828809D01*
X94860809Y-91257380D02*
X94765571Y-91209761D01*
X94717952Y-91114523D01*
X94717952Y-90257380D01*
X138548523Y-122372428D02*
X138405666Y-122324809D01*
X138358047Y-122277190D01*
X138310428Y-122181952D01*
X138310428Y-122039095D01*
X138358047Y-121943857D01*
X138405666Y-121896238D01*
X138500904Y-121848619D01*
X138881857Y-121848619D01*
X138881857Y-122848619D01*
X138548523Y-122848619D01*
X138453285Y-122801000D01*
X138405666Y-122753380D01*
X138358047Y-122658142D01*
X138358047Y-122562904D01*
X138405666Y-122467666D01*
X138453285Y-122420047D01*
X138548523Y-122372428D01*
X138881857Y-122372428D01*
X137881857Y-121848619D02*
X137881857Y-122848619D01*
X136881857Y-122801000D02*
X136977095Y-122848619D01*
X137119952Y-122848619D01*
X137262809Y-122801000D01*
X137358047Y-122705761D01*
X137405666Y-122610523D01*
X137453285Y-122420047D01*
X137453285Y-122277190D01*
X137405666Y-122086714D01*
X137358047Y-121991476D01*
X137262809Y-121896238D01*
X137119952Y-121848619D01*
X137024714Y-121848619D01*
X136881857Y-121896238D01*
X136834238Y-121943857D01*
X136834238Y-122277190D01*
X137024714Y-122277190D01*
X136548523Y-122848619D02*
X135977095Y-122848619D01*
X136262809Y-121848619D02*
X136262809Y-122848619D01*
X135072333Y-121848619D02*
X135405666Y-122324809D01*
X135643761Y-121848619D02*
X135643761Y-122848619D01*
X135262809Y-122848619D01*
X135167571Y-122801000D01*
X135119952Y-122753380D01*
X135072333Y-122658142D01*
X135072333Y-122515285D01*
X135119952Y-122420047D01*
X135167571Y-122372428D01*
X135262809Y-122324809D01*
X135643761Y-122324809D01*
X134643761Y-122372428D02*
X134310428Y-122372428D01*
X134167571Y-121848619D02*
X134643761Y-121848619D01*
X134643761Y-122848619D01*
X134167571Y-122848619D01*
X133739000Y-122372428D02*
X133405666Y-122372428D01*
X133262809Y-121848619D02*
X133739000Y-121848619D01*
X133739000Y-122848619D01*
X133262809Y-122848619D01*
X132977095Y-122848619D02*
X132405666Y-122848619D01*
X132691380Y-121848619D02*
X132691380Y-122848619D01*
X132072333Y-122372428D02*
X131739000Y-122372428D01*
X131596142Y-121848619D02*
X132072333Y-121848619D01*
X132072333Y-122848619D01*
X131596142Y-122848619D01*
X130596142Y-121943857D02*
X130643761Y-121896238D01*
X130786619Y-121848619D01*
X130881857Y-121848619D01*
X131024714Y-121896238D01*
X131119952Y-121991476D01*
X131167571Y-122086714D01*
X131215190Y-122277190D01*
X131215190Y-122420047D01*
X131167571Y-122610523D01*
X131119952Y-122705761D01*
X131024714Y-122801000D01*
X130881857Y-122848619D01*
X130786619Y-122848619D01*
X130643761Y-122801000D01*
X130596142Y-122753380D01*
X130167571Y-121848619D02*
X130167571Y-122848619D01*
X130167571Y-122372428D02*
X129596142Y-122372428D01*
X129596142Y-121848619D02*
X129596142Y-122848619D01*
D10*
X94848000Y-99978936D02*
X94848000Y-101183064D01*
X96668000Y-99978936D02*
X96668000Y-101183064D01*
X77541000Y-102634000D02*
X77151000Y-102634000D01*
X77541000Y-102634000D02*
X77541000Y-103084000D01*
X76841000Y-108204000D02*
X76841000Y-107554000D01*
X75111000Y-108204000D02*
X76841000Y-108204000D01*
X72541000Y-100584000D02*
X72751000Y-100584000D01*
X72541000Y-108204000D02*
X72751000Y-108204000D01*
X75111000Y-100584000D02*
X76841000Y-100584000D01*
X76841000Y-100584000D02*
X76841000Y-101244000D01*
X141859000Y-121031000D02*
X126619000Y-121031000D01*
X141859000Y-100711000D02*
X141859000Y-121031000D01*
X126619000Y-100711000D02*
X141859000Y-100711000D01*
X126619000Y-121031000D02*
X126619000Y-100711000D01*
X104183000Y-116313000D02*
X108583000Y-116313000D01*
X108583000Y-116313000D02*
X108583000Y-116193000D01*
X108583000Y-115183000D02*
X108583000Y-114043000D01*
X108583000Y-113033000D02*
X108583000Y-112913000D01*
X108583000Y-112913000D02*
X104183000Y-112913000D01*
X104183000Y-112913000D02*
X104183000Y-113033000D01*
X104183000Y-114043000D02*
X104183000Y-115183000D01*
X104183000Y-116193000D02*
X104183000Y-116313000D01*
X119020000Y-102710064D02*
X119020000Y-101505936D01*
X117200000Y-102710064D02*
X117200000Y-101505936D01*
X140539000Y-99542000D02*
X140539000Y-98342000D01*
X140539000Y-95022000D02*
X140539000Y-96222000D01*
X137083437Y-95022000D02*
X140539000Y-95022000D01*
X137083437Y-99542000D02*
X140539000Y-99542000D01*
X136019000Y-98477563D02*
X136019000Y-98342000D01*
X136019000Y-96086437D02*
X136019000Y-96222000D01*
X136019000Y-96086437D02*
X137083437Y-95022000D01*
X136019000Y-98477563D02*
X137083437Y-99542000D01*
X113136000Y-101381936D02*
X113136000Y-102586064D01*
X114956000Y-101381936D02*
X114956000Y-102586064D01*
X132181000Y-99669000D02*
X132181000Y-98469000D01*
X132181000Y-95149000D02*
X132181000Y-96349000D01*
X128725437Y-95149000D02*
X132181000Y-95149000D01*
X128725437Y-99669000D02*
X132181000Y-99669000D01*
X127661000Y-98604563D02*
X127661000Y-98469000D01*
X127661000Y-96213437D02*
X127661000Y-96349000D01*
X127661000Y-96213437D02*
X128725437Y-95149000D01*
X127661000Y-98604563D02*
X128725437Y-99669000D01*
X121772000Y-102834064D02*
X121772000Y-101629936D01*
X123592000Y-102834064D02*
X123592000Y-101629936D01*
X75313000Y-114479563D02*
X76377437Y-115544000D01*
X75313000Y-112088437D02*
X76377437Y-111024000D01*
X75313000Y-112088437D02*
X75313000Y-112224000D01*
X75313000Y-114479563D02*
X75313000Y-114344000D01*
X76377437Y-115544000D02*
X79833000Y-115544000D01*
X76377437Y-111024000D02*
X79833000Y-111024000D01*
X79833000Y-111024000D02*
X79833000Y-112224000D01*
X79833000Y-115544000D02*
X79833000Y-114344000D01*
X88498000Y-110714064D02*
X88498000Y-109509936D01*
X90318000Y-110714064D02*
X90318000Y-109509936D01*
X108564000Y-102586064D02*
X108564000Y-101381936D01*
X110384000Y-102586064D02*
X110384000Y-101381936D01*
X115262000Y-95512000D02*
X111377000Y-95512000D01*
X111377000Y-95512000D02*
X111377000Y-97782000D01*
X111377000Y-97782000D02*
X115262000Y-97782000D01*
X83074000Y-112360000D02*
X85074000Y-112360000D01*
X85074000Y-112360000D02*
X85074000Y-108460000D01*
X83074000Y-112360000D02*
X83074000Y-108460000D01*
X80900000Y-102100000D02*
X84785000Y-102100000D01*
X80900000Y-99830000D02*
X80900000Y-102100000D01*
X84785000Y-99830000D02*
X80900000Y-99830000D01*
X92021000Y-99830000D02*
X88136000Y-99830000D01*
X88136000Y-99830000D02*
X88136000Y-102100000D01*
X88136000Y-102100000D02*
X92021000Y-102100000D01*
X103378000Y-95183000D02*
X103378000Y-92523000D01*
X103378000Y-95183000D02*
X105978000Y-95183000D01*
X105978000Y-95183000D02*
X105978000Y-92523000D01*
X103378000Y-92523000D02*
X105978000Y-92523000D01*
X100778000Y-92523000D02*
X102108000Y-92523000D01*
X100778000Y-93853000D02*
X100778000Y-92523000D01*
X145482000Y-108585000D02*
X148142000Y-108585000D01*
X145482000Y-108585000D02*
X145482000Y-116265000D01*
X145482000Y-116265000D02*
X148142000Y-116265000D01*
X148142000Y-108585000D02*
X148142000Y-116265000D01*
X148142000Y-105985000D02*
X148142000Y-107315000D01*
X146812000Y-105985000D02*
X148142000Y-105985000D01*
X87570000Y-93980000D02*
X87570000Y-92650000D01*
X87570000Y-92650000D02*
X88900000Y-92650000D01*
X90170000Y-92650000D02*
X97850000Y-92650000D01*
X97850000Y-95310000D02*
X97850000Y-92650000D01*
X90170000Y-95310000D02*
X97850000Y-95310000D01*
X90170000Y-95310000D02*
X90170000Y-92650000D01*
X97769000Y-115534064D02*
X97769000Y-114329936D01*
X99589000Y-115534064D02*
X99589000Y-114329936D01*
X113059936Y-92477000D02*
X114264064Y-92477000D01*
X113059936Y-90657000D02*
X114264064Y-90657000D01*
X75721936Y-95610000D02*
X76926064Y-95610000D01*
X75721936Y-97430000D02*
X76926064Y-97430000D01*
X82198936Y-106320000D02*
X83403064Y-106320000D01*
X82198936Y-104500000D02*
X83403064Y-104500000D01*
X82201936Y-97430000D02*
X83406064Y-97430000D01*
X82201936Y-95610000D02*
X83406064Y-95610000D01*
X89564936Y-104500000D02*
X90769064Y-104500000D01*
X89564936Y-106320000D02*
X90769064Y-106320000D01*
X87498000Y-114319000D02*
X87498000Y-115579000D01*
X87498000Y-121139000D02*
X87498000Y-119879000D01*
X91258000Y-114319000D02*
X87498000Y-114319000D01*
X93508000Y-121139000D02*
X87498000Y-121139000D01*
D11*
X115120000Y-115385000D02*
X115345000Y-115385000D01*
X115120000Y-108135000D02*
X115445000Y-108135000D01*
X122370000Y-108135000D02*
X122045000Y-108135000D01*
X122370000Y-115385000D02*
X122045000Y-115385000D01*
X115120000Y-115385000D02*
X115120000Y-115060000D01*
X122370000Y-115385000D02*
X122370000Y-115060000D01*
X122370000Y-108135000D02*
X122370000Y-108460000D01*
X115120000Y-108135000D02*
X115120000Y-108460000D01*
X115345000Y-115385000D02*
X115345000Y-116810000D01*
D10*
X102427000Y-110216000D02*
X104377000Y-110216000D01*
X102427000Y-110216000D02*
X100477000Y-110216000D01*
X102427000Y-100096000D02*
X104377000Y-100096000D01*
X102427000Y-100096000D02*
X98977000Y-100096000D01*
X112941000Y-120237000D02*
X113341000Y-120237000D01*
X112941000Y-120037000D02*
X113341000Y-120037000D01*
X112941000Y-116437000D02*
X113341000Y-116437000D01*
X110941000Y-120237000D02*
X112941000Y-120237000D01*
X113341000Y-119037000D02*
X113741000Y-119037000D01*
X113341000Y-119037000D02*
X113341000Y-120037000D01*
X112941000Y-120037000D02*
X110941000Y-120037000D01*
X110941000Y-120037000D02*
X110941000Y-119037000D01*
X110941000Y-117237000D02*
X110941000Y-116437000D01*
X110941000Y-116437000D02*
X112941000Y-116437000D01*
X113341000Y-116437000D02*
X113341000Y-117237000D01*
X93288000Y-112036000D02*
X93288000Y-111236000D01*
X95688000Y-112036000D02*
X93688000Y-112036000D01*
X95688000Y-111236000D02*
X95688000Y-112036000D01*
X95688000Y-108436000D02*
X95688000Y-109436000D01*
X93688000Y-108436000D02*
X95688000Y-108436000D01*
X93288000Y-109436000D02*
X93288000Y-108436000D01*
X93288000Y-109436000D02*
X92888000Y-109436000D01*
X95688000Y-108236000D02*
X93688000Y-108236000D01*
X93688000Y-112036000D02*
X93288000Y-112036000D01*
X93688000Y-108436000D02*
X93288000Y-108436000D01*
X93688000Y-108236000D02*
X93288000Y-108236000D01*
D11*
X98147142Y-100747666D02*
X98194761Y-100795285D01*
X98242380Y-100938142D01*
X98242380Y-101033380D01*
X98194761Y-101176238D01*
X98099523Y-101271476D01*
X98004285Y-101319095D01*
X97813809Y-101366714D01*
X97670952Y-101366714D01*
X97480476Y-101319095D01*
X97385238Y-101271476D01*
X97290000Y-101176238D01*
X97242380Y-101033380D01*
X97242380Y-100938142D01*
X97290000Y-100795285D01*
X97337619Y-100747666D01*
X97670952Y-100176238D02*
X97623333Y-100271476D01*
X97575714Y-100319095D01*
X97480476Y-100366714D01*
X97432857Y-100366714D01*
X97337619Y-100319095D01*
X97290000Y-100271476D01*
X97242380Y-100176238D01*
X97242380Y-99985761D01*
X97290000Y-99890523D01*
X97337619Y-99842904D01*
X97432857Y-99795285D01*
X97480476Y-99795285D01*
X97575714Y-99842904D01*
X97623333Y-99890523D01*
X97670952Y-99985761D01*
X97670952Y-100176238D01*
X97718571Y-100271476D01*
X97766190Y-100319095D01*
X97861428Y-100366714D01*
X98051904Y-100366714D01*
X98147142Y-100319095D01*
X98194761Y-100271476D01*
X98242380Y-100176238D01*
X98242380Y-99985761D01*
X98194761Y-99890523D01*
X98147142Y-99842904D01*
X98051904Y-99795285D01*
X97861428Y-99795285D01*
X97766190Y-99842904D01*
X97718571Y-99890523D01*
X97670952Y-99985761D01*
X77883380Y-104727333D02*
X78597666Y-104727333D01*
X78740523Y-104774952D01*
X78835761Y-104870190D01*
X78883380Y-105013047D01*
X78883380Y-105108285D01*
X77883380Y-104346380D02*
X77883380Y-103727333D01*
X78264333Y-104060666D01*
X78264333Y-103917809D01*
X78311952Y-103822571D01*
X78359571Y-103774952D01*
X78454809Y-103727333D01*
X78692904Y-103727333D01*
X78788142Y-103774952D01*
X78835761Y-103822571D01*
X78883380Y-103917809D01*
X78883380Y-104203523D01*
X78835761Y-104298761D01*
X78788142Y-104346380D01*
X133477095Y-110831380D02*
X133477095Y-111640904D01*
X133524714Y-111736142D01*
X133572333Y-111783761D01*
X133667571Y-111831380D01*
X133858047Y-111831380D01*
X133953285Y-111783761D01*
X134000904Y-111736142D01*
X134048523Y-111640904D01*
X134048523Y-110831380D01*
X134429476Y-110831380D02*
X135048523Y-110831380D01*
X134715190Y-111212333D01*
X134858047Y-111212333D01*
X134953285Y-111259952D01*
X135000904Y-111307571D01*
X135048523Y-111402809D01*
X135048523Y-111640904D01*
X135000904Y-111736142D01*
X134953285Y-111783761D01*
X134858047Y-111831380D01*
X134572333Y-111831380D01*
X134477095Y-111783761D01*
X134429476Y-111736142D01*
X105049666Y-117617761D02*
X105192523Y-117665380D01*
X105430619Y-117665380D01*
X105525857Y-117617761D01*
X105573476Y-117570142D01*
X105621095Y-117474904D01*
X105621095Y-117379666D01*
X105573476Y-117284428D01*
X105525857Y-117236809D01*
X105430619Y-117189190D01*
X105240142Y-117141571D01*
X105144904Y-117093952D01*
X105097285Y-117046333D01*
X105049666Y-116951095D01*
X105049666Y-116855857D01*
X105097285Y-116760619D01*
X105144904Y-116713000D01*
X105240142Y-116665380D01*
X105478238Y-116665380D01*
X105621095Y-116713000D01*
X105954428Y-116665380D02*
X106192523Y-117665380D01*
X106383000Y-116951095D01*
X106573476Y-117665380D01*
X106811571Y-116665380D01*
X107716333Y-117665380D02*
X107144904Y-117665380D01*
X107430619Y-117665380D02*
X107430619Y-116665380D01*
X107335380Y-116808238D01*
X107240142Y-116903476D01*
X107144904Y-116951095D01*
X116647142Y-102274666D02*
X116694761Y-102322285D01*
X116742380Y-102465142D01*
X116742380Y-102560380D01*
X116694761Y-102703238D01*
X116599523Y-102798476D01*
X116504285Y-102846095D01*
X116313809Y-102893714D01*
X116170952Y-102893714D01*
X115980476Y-102846095D01*
X115885238Y-102798476D01*
X115790000Y-102703238D01*
X115742380Y-102560380D01*
X115742380Y-102465142D01*
X115790000Y-102322285D01*
X115837619Y-102274666D01*
X116742380Y-101322285D02*
X116742380Y-101893714D01*
X116742380Y-101608000D02*
X115742380Y-101608000D01*
X115885238Y-101703238D01*
X115980476Y-101798476D01*
X116028095Y-101893714D01*
X138112333Y-94439142D02*
X138064714Y-94486761D01*
X137921857Y-94534380D01*
X137826619Y-94534380D01*
X137683761Y-94486761D01*
X137588523Y-94391523D01*
X137540904Y-94296285D01*
X137493285Y-94105809D01*
X137493285Y-93962952D01*
X137540904Y-93772476D01*
X137588523Y-93677238D01*
X137683761Y-93582000D01*
X137826619Y-93534380D01*
X137921857Y-93534380D01*
X138064714Y-93582000D01*
X138112333Y-93629619D01*
X138493285Y-93629619D02*
X138540904Y-93582000D01*
X138636142Y-93534380D01*
X138874238Y-93534380D01*
X138969476Y-93582000D01*
X139017095Y-93629619D01*
X139064714Y-93724857D01*
X139064714Y-93820095D01*
X139017095Y-93962952D01*
X138445666Y-94534380D01*
X139064714Y-94534380D01*
X112625142Y-102147666D02*
X112672761Y-102195285D01*
X112720380Y-102338142D01*
X112720380Y-102433380D01*
X112672761Y-102576238D01*
X112577523Y-102671476D01*
X112482285Y-102719095D01*
X112291809Y-102766714D01*
X112148952Y-102766714D01*
X111958476Y-102719095D01*
X111863238Y-102671476D01*
X111768000Y-102576238D01*
X111720380Y-102433380D01*
X111720380Y-102338142D01*
X111768000Y-102195285D01*
X111815619Y-102147666D01*
X111720380Y-101814333D02*
X111720380Y-101195285D01*
X112101333Y-101528619D01*
X112101333Y-101385761D01*
X112148952Y-101290523D01*
X112196571Y-101242904D01*
X112291809Y-101195285D01*
X112529904Y-101195285D01*
X112625142Y-101242904D01*
X112672761Y-101290523D01*
X112720380Y-101385761D01*
X112720380Y-101671476D01*
X112672761Y-101766714D01*
X112625142Y-101814333D01*
X129754333Y-94566142D02*
X129706714Y-94613761D01*
X129563857Y-94661380D01*
X129468619Y-94661380D01*
X129325761Y-94613761D01*
X129230523Y-94518523D01*
X129182904Y-94423285D01*
X129135285Y-94232809D01*
X129135285Y-94089952D01*
X129182904Y-93899476D01*
X129230523Y-93804238D01*
X129325761Y-93709000D01*
X129468619Y-93661380D01*
X129563857Y-93661380D01*
X129706714Y-93709000D01*
X129754333Y-93756619D01*
X130611476Y-93994714D02*
X130611476Y-94661380D01*
X130373380Y-93613761D02*
X130135285Y-94328047D01*
X130754333Y-94328047D01*
X121219142Y-102398666D02*
X121266761Y-102446285D01*
X121314380Y-102589142D01*
X121314380Y-102684380D01*
X121266761Y-102827238D01*
X121171523Y-102922476D01*
X121076285Y-102970095D01*
X120885809Y-103017714D01*
X120742952Y-103017714D01*
X120552476Y-102970095D01*
X120457238Y-102922476D01*
X120362000Y-102827238D01*
X120314380Y-102684380D01*
X120314380Y-102589142D01*
X120362000Y-102446285D01*
X120409619Y-102398666D01*
X120314380Y-101493904D02*
X120314380Y-101970095D01*
X120790571Y-102017714D01*
X120742952Y-101970095D01*
X120695333Y-101874857D01*
X120695333Y-101636761D01*
X120742952Y-101541523D01*
X120790571Y-101493904D01*
X120885809Y-101446285D01*
X121123904Y-101446285D01*
X121219142Y-101493904D01*
X121266761Y-101541523D01*
X121314380Y-101636761D01*
X121314380Y-101874857D01*
X121266761Y-101970095D01*
X121219142Y-102017714D01*
X77406333Y-110441142D02*
X77358714Y-110488761D01*
X77215857Y-110536380D01*
X77120619Y-110536380D01*
X76977761Y-110488761D01*
X76882523Y-110393523D01*
X76834904Y-110298285D01*
X76787285Y-110107809D01*
X76787285Y-109964952D01*
X76834904Y-109774476D01*
X76882523Y-109679238D01*
X76977761Y-109584000D01*
X77120619Y-109536380D01*
X77215857Y-109536380D01*
X77358714Y-109584000D01*
X77406333Y-109631619D01*
X78263476Y-109536380D02*
X78073000Y-109536380D01*
X77977761Y-109584000D01*
X77930142Y-109631619D01*
X77834904Y-109774476D01*
X77787285Y-109964952D01*
X77787285Y-110345904D01*
X77834904Y-110441142D01*
X77882523Y-110488761D01*
X77977761Y-110536380D01*
X78168238Y-110536380D01*
X78263476Y-110488761D01*
X78311095Y-110441142D01*
X78358714Y-110345904D01*
X78358714Y-110107809D01*
X78311095Y-110012571D01*
X78263476Y-109964952D01*
X78168238Y-109917333D01*
X77977761Y-109917333D01*
X77882523Y-109964952D01*
X77834904Y-110012571D01*
X77787285Y-110107809D01*
X87945142Y-110278666D02*
X87992761Y-110326285D01*
X88040380Y-110469142D01*
X88040380Y-110564380D01*
X87992761Y-110707238D01*
X87897523Y-110802476D01*
X87802285Y-110850095D01*
X87611809Y-110897714D01*
X87468952Y-110897714D01*
X87278476Y-110850095D01*
X87183238Y-110802476D01*
X87088000Y-110707238D01*
X87040380Y-110564380D01*
X87040380Y-110469142D01*
X87088000Y-110326285D01*
X87135619Y-110278666D01*
X87040380Y-109945333D02*
X87040380Y-109278666D01*
X88040380Y-109707238D01*
X108011142Y-102150666D02*
X108058761Y-102198285D01*
X108106380Y-102341142D01*
X108106380Y-102436380D01*
X108058761Y-102579238D01*
X107963523Y-102674476D01*
X107868285Y-102722095D01*
X107677809Y-102769714D01*
X107534952Y-102769714D01*
X107344476Y-102722095D01*
X107249238Y-102674476D01*
X107154000Y-102579238D01*
X107106380Y-102436380D01*
X107106380Y-102341142D01*
X107154000Y-102198285D01*
X107201619Y-102150666D01*
X108106380Y-101674476D02*
X108106380Y-101484000D01*
X108058761Y-101388761D01*
X108011142Y-101341142D01*
X107868285Y-101245904D01*
X107677809Y-101198285D01*
X107296857Y-101198285D01*
X107201619Y-101245904D01*
X107154000Y-101293523D01*
X107106380Y-101388761D01*
X107106380Y-101579238D01*
X107154000Y-101674476D01*
X107201619Y-101722095D01*
X107296857Y-101769714D01*
X107534952Y-101769714D01*
X107630190Y-101722095D01*
X107677809Y-101674476D01*
X107725428Y-101579238D01*
X107725428Y-101388761D01*
X107677809Y-101293523D01*
X107630190Y-101245904D01*
X107534952Y-101198285D01*
X112923904Y-95279380D02*
X112923904Y-94279380D01*
X113162000Y-94279380D01*
X113304857Y-94327000D01*
X113400095Y-94422238D01*
X113447714Y-94517476D01*
X113495333Y-94707952D01*
X113495333Y-94850809D01*
X113447714Y-95041285D01*
X113400095Y-95136523D01*
X113304857Y-95231761D01*
X113162000Y-95279380D01*
X112923904Y-95279380D01*
X114447714Y-95279380D02*
X113876285Y-95279380D01*
X114162000Y-95279380D02*
X114162000Y-94279380D01*
X114066761Y-94422238D01*
X113971523Y-94517476D01*
X113876285Y-94565095D01*
X82526380Y-110848095D02*
X81526380Y-110848095D01*
X81526380Y-110610000D01*
X81574000Y-110467142D01*
X81669238Y-110371904D01*
X81764476Y-110324285D01*
X81954952Y-110276666D01*
X82097809Y-110276666D01*
X82288285Y-110324285D01*
X82383523Y-110371904D01*
X82478761Y-110467142D01*
X82526380Y-110610000D01*
X82526380Y-110848095D01*
X81621619Y-109895714D02*
X81574000Y-109848095D01*
X81526380Y-109752857D01*
X81526380Y-109514761D01*
X81574000Y-109419523D01*
X81621619Y-109371904D01*
X81716857Y-109324285D01*
X81812095Y-109324285D01*
X81954952Y-109371904D01*
X82526380Y-109943333D01*
X82526380Y-109324285D01*
X82446904Y-99597380D02*
X82446904Y-98597380D01*
X82685000Y-98597380D01*
X82827857Y-98645000D01*
X82923095Y-98740238D01*
X82970714Y-98835476D01*
X83018333Y-99025952D01*
X83018333Y-99168809D01*
X82970714Y-99359285D01*
X82923095Y-99454523D01*
X82827857Y-99549761D01*
X82685000Y-99597380D01*
X82446904Y-99597380D01*
X83351666Y-98597380D02*
X83970714Y-98597380D01*
X83637380Y-98978333D01*
X83780238Y-98978333D01*
X83875476Y-99025952D01*
X83923095Y-99073571D01*
X83970714Y-99168809D01*
X83970714Y-99406904D01*
X83923095Y-99502142D01*
X83875476Y-99549761D01*
X83780238Y-99597380D01*
X83494523Y-99597380D01*
X83399285Y-99549761D01*
X83351666Y-99502142D01*
X89682904Y-99597380D02*
X89682904Y-98597380D01*
X89921000Y-98597380D01*
X90063857Y-98645000D01*
X90159095Y-98740238D01*
X90206714Y-98835476D01*
X90254333Y-99025952D01*
X90254333Y-99168809D01*
X90206714Y-99359285D01*
X90159095Y-99454523D01*
X90063857Y-99549761D01*
X89921000Y-99597380D01*
X89682904Y-99597380D01*
X91111476Y-98930714D02*
X91111476Y-99597380D01*
X90873380Y-98549761D02*
X90635285Y-99264047D01*
X91254333Y-99264047D01*
X98790380Y-94186333D02*
X99504666Y-94186333D01*
X99647523Y-94233952D01*
X99742761Y-94329190D01*
X99790380Y-94472047D01*
X99790380Y-94567285D01*
X99790380Y-93186333D02*
X99790380Y-93757761D01*
X99790380Y-93472047D02*
X98790380Y-93472047D01*
X98933238Y-93567285D01*
X99028476Y-93662523D01*
X99076095Y-93757761D01*
X146478666Y-103997380D02*
X146478666Y-104711666D01*
X146431047Y-104854523D01*
X146335809Y-104949761D01*
X146192952Y-104997380D01*
X146097714Y-104997380D01*
X146907238Y-104092619D02*
X146954857Y-104045000D01*
X147050095Y-103997380D01*
X147288190Y-103997380D01*
X147383428Y-104045000D01*
X147431047Y-104092619D01*
X147478666Y-104187857D01*
X147478666Y-104283095D01*
X147431047Y-104425952D01*
X146859619Y-104997380D01*
X147478666Y-104997380D01*
X85582380Y-94313333D02*
X86296666Y-94313333D01*
X86439523Y-94360952D01*
X86534761Y-94456190D01*
X86582380Y-94599047D01*
X86582380Y-94694285D01*
X85915714Y-93408571D02*
X86582380Y-93408571D01*
X85534761Y-93646666D02*
X86249047Y-93884761D01*
X86249047Y-93265714D01*
X97311380Y-115098666D02*
X96835190Y-115432000D01*
X97311380Y-115670095D02*
X96311380Y-115670095D01*
X96311380Y-115289142D01*
X96359000Y-115193904D01*
X96406619Y-115146285D01*
X96501857Y-115098666D01*
X96644714Y-115098666D01*
X96739952Y-115146285D01*
X96787571Y-115193904D01*
X96835190Y-115289142D01*
X96835190Y-115670095D01*
X97311380Y-114146285D02*
X97311380Y-114717714D01*
X97311380Y-114432000D02*
X96311380Y-114432000D01*
X96454238Y-114527238D01*
X96549476Y-114622476D01*
X96597095Y-114717714D01*
X113371333Y-90368380D02*
X113038000Y-89892190D01*
X112799904Y-90368380D02*
X112799904Y-89368380D01*
X113180857Y-89368380D01*
X113276095Y-89416000D01*
X113323714Y-89463619D01*
X113371333Y-89558857D01*
X113371333Y-89701714D01*
X113323714Y-89796952D01*
X113276095Y-89844571D01*
X113180857Y-89892190D01*
X112799904Y-89892190D01*
X113752285Y-89463619D02*
X113799904Y-89416000D01*
X113895142Y-89368380D01*
X114133238Y-89368380D01*
X114228476Y-89416000D01*
X114276095Y-89463619D01*
X114323714Y-89558857D01*
X114323714Y-89654095D01*
X114276095Y-89796952D01*
X113704666Y-90368380D01*
X114323714Y-90368380D01*
X76157333Y-95152380D02*
X75824000Y-94676190D01*
X75585904Y-95152380D02*
X75585904Y-94152380D01*
X75966857Y-94152380D01*
X76062095Y-94200000D01*
X76109714Y-94247619D01*
X76157333Y-94342857D01*
X76157333Y-94485714D01*
X76109714Y-94580952D01*
X76062095Y-94628571D01*
X75966857Y-94676190D01*
X75585904Y-94676190D01*
X76490666Y-94152380D02*
X77109714Y-94152380D01*
X76776380Y-94533333D01*
X76919238Y-94533333D01*
X77014476Y-94580952D01*
X77062095Y-94628571D01*
X77109714Y-94723809D01*
X77109714Y-94961904D01*
X77062095Y-95057142D01*
X77014476Y-95104761D01*
X76919238Y-95152380D01*
X76633523Y-95152380D01*
X76538285Y-95104761D01*
X76490666Y-95057142D01*
X82634333Y-104042380D02*
X82301000Y-103566190D01*
X82062904Y-104042380D02*
X82062904Y-103042380D01*
X82443857Y-103042380D01*
X82539095Y-103090000D01*
X82586714Y-103137619D01*
X82634333Y-103232857D01*
X82634333Y-103375714D01*
X82586714Y-103470952D01*
X82539095Y-103518571D01*
X82443857Y-103566190D01*
X82062904Y-103566190D01*
X83491476Y-103375714D02*
X83491476Y-104042380D01*
X83253380Y-102994761D02*
X83015285Y-103709047D01*
X83634333Y-103709047D01*
X82637333Y-95152380D02*
X82304000Y-94676190D01*
X82065904Y-95152380D02*
X82065904Y-94152380D01*
X82446857Y-94152380D01*
X82542095Y-94200000D01*
X82589714Y-94247619D01*
X82637333Y-94342857D01*
X82637333Y-94485714D01*
X82589714Y-94580952D01*
X82542095Y-94628571D01*
X82446857Y-94676190D01*
X82065904Y-94676190D01*
X83542095Y-94152380D02*
X83065904Y-94152380D01*
X83018285Y-94628571D01*
X83065904Y-94580952D01*
X83161142Y-94533333D01*
X83399238Y-94533333D01*
X83494476Y-94580952D01*
X83542095Y-94628571D01*
X83589714Y-94723809D01*
X83589714Y-94961904D01*
X83542095Y-95057142D01*
X83494476Y-95104761D01*
X83399238Y-95152380D01*
X83161142Y-95152380D01*
X83065904Y-95104761D01*
X83018285Y-95057142D01*
X90000333Y-104042380D02*
X89667000Y-103566190D01*
X89428904Y-104042380D02*
X89428904Y-103042380D01*
X89809857Y-103042380D01*
X89905095Y-103090000D01*
X89952714Y-103137619D01*
X90000333Y-103232857D01*
X90000333Y-103375714D01*
X89952714Y-103470952D01*
X89905095Y-103518571D01*
X89809857Y-103566190D01*
X89428904Y-103566190D01*
X90857476Y-103042380D02*
X90667000Y-103042380D01*
X90571761Y-103090000D01*
X90524142Y-103137619D01*
X90428904Y-103280476D01*
X90381285Y-103470952D01*
X90381285Y-103851904D01*
X90428904Y-103947142D01*
X90476523Y-103994761D01*
X90571761Y-104042380D01*
X90762238Y-104042380D01*
X90857476Y-103994761D01*
X90905095Y-103947142D01*
X90952714Y-103851904D01*
X90952714Y-103613809D01*
X90905095Y-103518571D01*
X90857476Y-103470952D01*
X90762238Y-103423333D01*
X90571761Y-103423333D01*
X90476523Y-103470952D01*
X90428904Y-103518571D01*
X90381285Y-103613809D01*
X88773095Y-117308380D02*
X88773095Y-118117904D01*
X88820714Y-118213142D01*
X88868333Y-118260761D01*
X88963571Y-118308380D01*
X89154047Y-118308380D01*
X89249285Y-118260761D01*
X89296904Y-118213142D01*
X89344523Y-118117904D01*
X89344523Y-117308380D01*
X90344523Y-118308380D02*
X89773095Y-118308380D01*
X90058809Y-118308380D02*
X90058809Y-117308380D01*
X89963571Y-117451238D01*
X89868333Y-117546476D01*
X89773095Y-117594095D01*
X112147380Y-112521904D02*
X112956904Y-112521904D01*
X113052142Y-112474285D01*
X113099761Y-112426666D01*
X113147380Y-112331428D01*
X113147380Y-112140952D01*
X113099761Y-112045714D01*
X113052142Y-111998095D01*
X112956904Y-111950476D01*
X112147380Y-111950476D01*
X112242619Y-111521904D02*
X112195000Y-111474285D01*
X112147380Y-111379047D01*
X112147380Y-111140952D01*
X112195000Y-111045714D01*
X112242619Y-110998095D01*
X112337857Y-110950476D01*
X112433095Y-110950476D01*
X112575952Y-110998095D01*
X113147380Y-111569523D01*
X113147380Y-110950476D01*
X101665095Y-98708380D02*
X101665095Y-99517904D01*
X101712714Y-99613142D01*
X101760333Y-99660761D01*
X101855571Y-99708380D01*
X102046047Y-99708380D01*
X102141285Y-99660761D01*
X102188904Y-99613142D01*
X102236523Y-99517904D01*
X102236523Y-98708380D01*
X103141285Y-99041714D02*
X103141285Y-99708380D01*
X102903190Y-98660761D02*
X102665095Y-99375047D01*
X103284142Y-99375047D01*
X110117190Y-118713190D02*
X110593380Y-118713190D01*
X109593380Y-119046523D02*
X110117190Y-118713190D01*
X109593380Y-118379857D01*
X110593380Y-117522714D02*
X110593380Y-118094142D01*
X110593380Y-117808428D02*
X109593380Y-117808428D01*
X109736238Y-117903666D01*
X109831476Y-117998904D01*
X109879095Y-118094142D01*
X96464190Y-110712190D02*
X96940380Y-110712190D01*
X95940380Y-111045523D02*
X96464190Y-110712190D01*
X95940380Y-110378857D01*
X96035619Y-110093142D02*
X95988000Y-110045523D01*
X95940380Y-109950285D01*
X95940380Y-109712190D01*
X95988000Y-109616952D01*
X96035619Y-109569333D01*
X96130857Y-109521714D01*
X96226095Y-109521714D01*
X96368952Y-109569333D01*
X96940380Y-110140761D01*
X96940380Y-109521714D01*
M02*
