M48
; DRILL file {KiCad (5.1.5)-3} date 1/22/2021 5:28:19 PM
; FORMAT={-:-/ absolute / inch / decimal}
; #@! TF.CreationDate,2021-01-22T17:28:19+08:00
; #@! TF.GenerationSoftware,Kicad,Pcbnew,(5.1.5)-3
; #@! TF.FileFunction,Plated,1,2,PTH
FMAT,2
INCH
T1C0.0157
T2C0.0177
T3C0.0300
T4C0.0394
%
G90
G05
T1
X3.0596Y-4.1902
X3.0883Y-4.088
X3.109Y-4.3922
X3.5523Y-4.2314
X3.5872Y-4.2887
X3.6512Y-4.3342
X3.6953Y-4.1452
X3.7286Y-4.6926
X3.871Y-3.9521
X4.1815Y-4.5501
X4.4225Y-4.0731
X4.4347Y-4.4487
X4.4749Y-3.8077
X4.498Y-4.6594
X4.63Y-4.635
X4.6523Y-4.3003
X4.7465Y-3.98
X4.9238Y-4.2489
X5.2732Y-3.8375
X5.5916Y-3.8375
T3
X5.035Y-4.015
X5.035Y-4.115
X5.035Y-4.215
X5.035Y-4.315
X5.035Y-4.415
X5.035Y-4.515
X5.035Y-4.615
X5.035Y-4.715
X5.535Y-4.015
X5.535Y-4.115
X5.535Y-4.215
X5.535Y-4.315
X5.535Y-4.415
X5.535Y-4.515
X5.535Y-4.615
X5.535Y-4.715
T4
X4.02Y-3.695
X4.12Y-3.695
X5.78Y-4.225
X5.78Y-4.325
X5.78Y-4.425
X5.78Y-4.525
X3.5Y-3.7
X3.6Y-3.7
X3.7Y-3.7
X3.8Y-3.7
T2
G00X2.8949Y-3.9693
M15
G01X2.9264Y-3.9693
M16
G05
G00X2.9264Y-4.2507
M15
G01X2.8949Y-4.2507
M16
G05
T0
M30
