G04 #@! TF.GenerationSoftware,KiCad,Pcbnew,(5.1.5)-3*
G04 #@! TF.CreationDate,2021-01-22T17:28:22+08:00*
G04 #@! TF.ProjectId,Pump_Driver,50756d70-5f44-4726-9976-65722e6b6963,rev?*
G04 #@! TF.SameCoordinates,Original*
G04 #@! TF.FileFunction,Copper,L2,Bot*
G04 #@! TF.FilePolarity,Positive*
%FSLAX46Y46*%
G04 Gerber Fmt 4.6, Leading zero omitted, Abs format (unit mm)*
G04 Created by KiCad (PCBNEW (5.1.5)-3) date 2021-01-22 17:28:22*
%MOMM*%
%LPD*%
G04 APERTURE LIST*
%ADD10O,1.900000X1.050000*%
%ADD11C,1.524000*%
%ADD12R,1.700000X1.700000*%
%ADD13O,1.700000X1.700000*%
%ADD14C,0.800000*%
%ADD15C,0.250000*%
%ADD16C,0.254000*%
G04 APERTURE END LIST*
D10*
X73931000Y-107969000D03*
X73931000Y-100819000D03*
D11*
X127889000Y-101981000D03*
X127889000Y-104521000D03*
X127889000Y-107061000D03*
X127889000Y-109601000D03*
X127889000Y-112141000D03*
X127889000Y-114681000D03*
X127889000Y-117221000D03*
X127889000Y-119761000D03*
X140589000Y-119761000D03*
X140589000Y-117221000D03*
X140589000Y-114681000D03*
X140589000Y-112141000D03*
X140589000Y-109601000D03*
X140589000Y-107061000D03*
X140589000Y-104521000D03*
X140589000Y-101981000D03*
D12*
X102108000Y-93853000D03*
D13*
X104648000Y-93853000D03*
D12*
X146812000Y-107315000D03*
D13*
X146812000Y-109855000D03*
X146812000Y-112395000D03*
X146812000Y-114935000D03*
X96520000Y-93980000D03*
X93980000Y-93980000D03*
X91440000Y-93980000D03*
D12*
X88900000Y-93980000D03*
D14*
X91114500Y-108932300D03*
X94706500Y-119193000D03*
X113662000Y-96714600D03*
X77713400Y-106432200D03*
X78968500Y-111562000D03*
X106209000Y-115573000D03*
X112332500Y-103456500D03*
X142027500Y-97473000D03*
X133938500Y-97473000D03*
X120560500Y-101093000D03*
X118167500Y-109226500D03*
X98323900Y-100383100D03*
X114248000Y-118347500D03*
X92741500Y-110089500D03*
X117602000Y-117729000D03*
X112642100Y-112996600D03*
X78442500Y-103836400D03*
X90228300Y-107477700D03*
X125064400Y-107921300D03*
X93861600Y-105288600D03*
D15*
X96520000Y-93980000D02*
X96520000Y-95155300D01*
X96520000Y-95155300D02*
X112642100Y-111277400D01*
X112642100Y-111277400D02*
X112642100Y-112996600D01*
X90228300Y-107477700D02*
X86587000Y-103836400D01*
X86587000Y-103836400D02*
X78442500Y-103836400D01*
X125064400Y-107921300D02*
X125064400Y-109316400D01*
X125064400Y-109316400D02*
X127889000Y-112141000D01*
X93980000Y-95155300D02*
X93980000Y-105288600D01*
X93980000Y-105288600D02*
X93861600Y-105288600D01*
X93980000Y-93980000D02*
X93980000Y-95155300D01*
D16*
G36*
X118892282Y-93032850D02*
G01*
X118907765Y-93052347D01*
X118926754Y-93068448D01*
X118948519Y-93080536D01*
X118972224Y-93088145D01*
X118999000Y-93091000D01*
X140158128Y-93091000D01*
X148971000Y-101274381D01*
X148971000Y-117172715D01*
X143960870Y-122809111D01*
X78934879Y-122935867D01*
X73230000Y-114378548D01*
X73230000Y-109097472D01*
X73278600Y-109112215D01*
X73449021Y-109129000D01*
X74412979Y-109129000D01*
X74583400Y-109112215D01*
X74802060Y-109045885D01*
X75003579Y-108938171D01*
X75180212Y-108793212D01*
X75325171Y-108616579D01*
X75432885Y-108415060D01*
X75499215Y-108196400D01*
X75521612Y-107969000D01*
X75499215Y-107741600D01*
X75432885Y-107522940D01*
X75325171Y-107321421D01*
X75180212Y-107144788D01*
X75003579Y-106999829D01*
X74802060Y-106892115D01*
X74583400Y-106825785D01*
X74412979Y-106809000D01*
X73449021Y-106809000D01*
X73278600Y-106825785D01*
X73230000Y-106840528D01*
X73230000Y-103734461D01*
X77407500Y-103734461D01*
X77407500Y-103938339D01*
X77447274Y-104138298D01*
X77525295Y-104326656D01*
X77638563Y-104496174D01*
X77782726Y-104640337D01*
X77952244Y-104753605D01*
X78140602Y-104831626D01*
X78340561Y-104871400D01*
X78544439Y-104871400D01*
X78744398Y-104831626D01*
X78932756Y-104753605D01*
X79102274Y-104640337D01*
X79146211Y-104596400D01*
X86272199Y-104596400D01*
X89193300Y-107517502D01*
X89193300Y-107579639D01*
X89233074Y-107779598D01*
X89311095Y-107967956D01*
X89424363Y-108137474D01*
X89568526Y-108281637D01*
X89738044Y-108394905D01*
X89926402Y-108472926D01*
X90126361Y-108512700D01*
X90330239Y-108512700D01*
X90530198Y-108472926D01*
X90718556Y-108394905D01*
X90888074Y-108281637D01*
X91032237Y-108137474D01*
X91145505Y-107967956D01*
X91223526Y-107779598D01*
X91263300Y-107579639D01*
X91263300Y-107375761D01*
X91223526Y-107175802D01*
X91145505Y-106987444D01*
X91032237Y-106817926D01*
X90888074Y-106673763D01*
X90718556Y-106560495D01*
X90530198Y-106482474D01*
X90330239Y-106442700D01*
X90268102Y-106442700D01*
X87150804Y-103325403D01*
X87127001Y-103296399D01*
X87011276Y-103201426D01*
X86879247Y-103130854D01*
X86735986Y-103087397D01*
X86624333Y-103076400D01*
X86624322Y-103076400D01*
X86587000Y-103072724D01*
X86549678Y-103076400D01*
X79146211Y-103076400D01*
X79102274Y-103032463D01*
X78932756Y-102919195D01*
X78744398Y-102841174D01*
X78544439Y-102801400D01*
X78340561Y-102801400D01*
X78140602Y-102841174D01*
X77952244Y-102919195D01*
X77782726Y-103032463D01*
X77638563Y-103176626D01*
X77525295Y-103346144D01*
X77447274Y-103534502D01*
X77407500Y-103734461D01*
X73230000Y-103734461D01*
X73230000Y-101947472D01*
X73278600Y-101962215D01*
X73449021Y-101979000D01*
X74412979Y-101979000D01*
X74583400Y-101962215D01*
X74802060Y-101895885D01*
X75003579Y-101788171D01*
X75180212Y-101643212D01*
X75325171Y-101466579D01*
X75432885Y-101265060D01*
X75499215Y-101046400D01*
X75521612Y-100819000D01*
X75499215Y-100591600D01*
X75432885Y-100372940D01*
X75325171Y-100171421D01*
X75180212Y-99994788D01*
X75003579Y-99849829D01*
X74802060Y-99742115D01*
X74583400Y-99675785D01*
X74412979Y-99659000D01*
X73449021Y-99659000D01*
X73278600Y-99675785D01*
X73230000Y-99690528D01*
X73230000Y-96717944D01*
X77672216Y-93130000D01*
X87411928Y-93130000D01*
X87411928Y-94830000D01*
X87424188Y-94954482D01*
X87460498Y-95074180D01*
X87519463Y-95184494D01*
X87598815Y-95281185D01*
X87695506Y-95360537D01*
X87805820Y-95419502D01*
X87925518Y-95455812D01*
X88050000Y-95468072D01*
X89750000Y-95468072D01*
X89874482Y-95455812D01*
X89994180Y-95419502D01*
X90104494Y-95360537D01*
X90201185Y-95281185D01*
X90280537Y-95184494D01*
X90339502Y-95074180D01*
X90363966Y-94993534D01*
X90439731Y-95077588D01*
X90673080Y-95251641D01*
X90935901Y-95376825D01*
X91083110Y-95421476D01*
X91313000Y-95300155D01*
X91313000Y-94107000D01*
X91293000Y-94107000D01*
X91293000Y-93853000D01*
X91313000Y-93853000D01*
X91313000Y-92659845D01*
X91567000Y-92659845D01*
X91567000Y-93853000D01*
X91587000Y-93853000D01*
X91587000Y-94107000D01*
X91567000Y-94107000D01*
X91567000Y-95300155D01*
X91796890Y-95421476D01*
X91944099Y-95376825D01*
X92206920Y-95251641D01*
X92440269Y-95077588D01*
X92635178Y-94861355D01*
X92704805Y-94744466D01*
X92826525Y-94926632D01*
X93033368Y-95133475D01*
X93220000Y-95258178D01*
X93220001Y-104472519D01*
X93201826Y-104484663D01*
X93057663Y-104628826D01*
X92944395Y-104798344D01*
X92866374Y-104986702D01*
X92826600Y-105186661D01*
X92826600Y-105390539D01*
X92866374Y-105590498D01*
X92944395Y-105778856D01*
X93057663Y-105948374D01*
X93201826Y-106092537D01*
X93371344Y-106205805D01*
X93559702Y-106283826D01*
X93759661Y-106323600D01*
X93963539Y-106323600D01*
X94163498Y-106283826D01*
X94351856Y-106205805D01*
X94521374Y-106092537D01*
X94665537Y-105948374D01*
X94778805Y-105778856D01*
X94856826Y-105590498D01*
X94896600Y-105390539D01*
X94896600Y-105186661D01*
X94856826Y-104986702D01*
X94778805Y-104798344D01*
X94740000Y-104740268D01*
X94740000Y-95258178D01*
X94926632Y-95133475D01*
X95133475Y-94926632D01*
X95250000Y-94752240D01*
X95366525Y-94926632D01*
X95573368Y-95133475D01*
X95766912Y-95262797D01*
X95770998Y-95304285D01*
X95814454Y-95447546D01*
X95885026Y-95579576D01*
X95956201Y-95666302D01*
X95980000Y-95695301D01*
X96008998Y-95719099D01*
X111882100Y-111592203D01*
X111882101Y-112292888D01*
X111838163Y-112336826D01*
X111724895Y-112506344D01*
X111646874Y-112694702D01*
X111607100Y-112894661D01*
X111607100Y-113098539D01*
X111646874Y-113298498D01*
X111724895Y-113486856D01*
X111838163Y-113656374D01*
X111982326Y-113800537D01*
X112151844Y-113913805D01*
X112340202Y-113991826D01*
X112540161Y-114031600D01*
X112744039Y-114031600D01*
X112943998Y-113991826D01*
X113132356Y-113913805D01*
X113301874Y-113800537D01*
X113446037Y-113656374D01*
X113559305Y-113486856D01*
X113637326Y-113298498D01*
X113677100Y-113098539D01*
X113677100Y-112894661D01*
X113637326Y-112694702D01*
X113559305Y-112506344D01*
X113446037Y-112336826D01*
X113402100Y-112292889D01*
X113402100Y-111314722D01*
X113405776Y-111277399D01*
X113402100Y-111240076D01*
X113402100Y-111240067D01*
X113391103Y-111128414D01*
X113347646Y-110985153D01*
X113277074Y-110853124D01*
X113234816Y-110801632D01*
X113205899Y-110766396D01*
X113205895Y-110766392D01*
X113182101Y-110737399D01*
X113153110Y-110713607D01*
X110258864Y-107819361D01*
X124029400Y-107819361D01*
X124029400Y-108023239D01*
X124069174Y-108223198D01*
X124147195Y-108411556D01*
X124260463Y-108581074D01*
X124304401Y-108625012D01*
X124304401Y-109279068D01*
X124300724Y-109316400D01*
X124315398Y-109465385D01*
X124358854Y-109608646D01*
X124429426Y-109740676D01*
X124500601Y-109827402D01*
X124524400Y-109856401D01*
X124553398Y-109880199D01*
X126522628Y-111849430D01*
X126492000Y-112003408D01*
X126492000Y-112278592D01*
X126545686Y-112548490D01*
X126650995Y-112802727D01*
X126803880Y-113031535D01*
X126998465Y-113226120D01*
X127227273Y-113379005D01*
X127304515Y-113411000D01*
X127227273Y-113442995D01*
X126998465Y-113595880D01*
X126803880Y-113790465D01*
X126650995Y-114019273D01*
X126545686Y-114273510D01*
X126492000Y-114543408D01*
X126492000Y-114818592D01*
X126545686Y-115088490D01*
X126650995Y-115342727D01*
X126803880Y-115571535D01*
X126998465Y-115766120D01*
X127227273Y-115919005D01*
X127304515Y-115951000D01*
X127227273Y-115982995D01*
X126998465Y-116135880D01*
X126803880Y-116330465D01*
X126650995Y-116559273D01*
X126545686Y-116813510D01*
X126492000Y-117083408D01*
X126492000Y-117358592D01*
X126545686Y-117628490D01*
X126650995Y-117882727D01*
X126803880Y-118111535D01*
X126998465Y-118306120D01*
X127227273Y-118459005D01*
X127304515Y-118491000D01*
X127227273Y-118522995D01*
X126998465Y-118675880D01*
X126803880Y-118870465D01*
X126650995Y-119099273D01*
X126545686Y-119353510D01*
X126492000Y-119623408D01*
X126492000Y-119898592D01*
X126545686Y-120168490D01*
X126650995Y-120422727D01*
X126803880Y-120651535D01*
X126998465Y-120846120D01*
X127227273Y-120999005D01*
X127481510Y-121104314D01*
X127751408Y-121158000D01*
X128026592Y-121158000D01*
X128296490Y-121104314D01*
X128550727Y-120999005D01*
X128779535Y-120846120D01*
X128974120Y-120651535D01*
X129127005Y-120422727D01*
X129232314Y-120168490D01*
X129286000Y-119898592D01*
X129286000Y-119623408D01*
X129232314Y-119353510D01*
X129127005Y-119099273D01*
X128974120Y-118870465D01*
X128779535Y-118675880D01*
X128550727Y-118522995D01*
X128473485Y-118491000D01*
X128550727Y-118459005D01*
X128779535Y-118306120D01*
X128974120Y-118111535D01*
X129127005Y-117882727D01*
X129232314Y-117628490D01*
X129286000Y-117358592D01*
X129286000Y-117083408D01*
X129232314Y-116813510D01*
X129127005Y-116559273D01*
X128974120Y-116330465D01*
X128779535Y-116135880D01*
X128550727Y-115982995D01*
X128473485Y-115951000D01*
X128550727Y-115919005D01*
X128779535Y-115766120D01*
X128974120Y-115571535D01*
X129127005Y-115342727D01*
X129232314Y-115088490D01*
X129286000Y-114818592D01*
X129286000Y-114543408D01*
X129232314Y-114273510D01*
X129127005Y-114019273D01*
X128974120Y-113790465D01*
X128779535Y-113595880D01*
X128550727Y-113442995D01*
X128473485Y-113411000D01*
X128550727Y-113379005D01*
X128779535Y-113226120D01*
X128974120Y-113031535D01*
X129127005Y-112802727D01*
X129232314Y-112548490D01*
X129286000Y-112278592D01*
X129286000Y-112003408D01*
X129232314Y-111733510D01*
X129127005Y-111479273D01*
X128974120Y-111250465D01*
X128779535Y-111055880D01*
X128550727Y-110902995D01*
X128473485Y-110871000D01*
X128550727Y-110839005D01*
X128779535Y-110686120D01*
X128974120Y-110491535D01*
X129127005Y-110262727D01*
X129232314Y-110008490D01*
X129286000Y-109738592D01*
X129286000Y-109463408D01*
X129232314Y-109193510D01*
X129127005Y-108939273D01*
X128974120Y-108710465D01*
X128779535Y-108515880D01*
X128550727Y-108362995D01*
X128473485Y-108331000D01*
X128550727Y-108299005D01*
X128779535Y-108146120D01*
X128974120Y-107951535D01*
X129127005Y-107722727D01*
X129232314Y-107468490D01*
X129286000Y-107198592D01*
X129286000Y-106923408D01*
X139192000Y-106923408D01*
X139192000Y-107198592D01*
X139245686Y-107468490D01*
X139350995Y-107722727D01*
X139503880Y-107951535D01*
X139698465Y-108146120D01*
X139927273Y-108299005D01*
X140004515Y-108331000D01*
X139927273Y-108362995D01*
X139698465Y-108515880D01*
X139503880Y-108710465D01*
X139350995Y-108939273D01*
X139245686Y-109193510D01*
X139192000Y-109463408D01*
X139192000Y-109738592D01*
X139245686Y-110008490D01*
X139350995Y-110262727D01*
X139503880Y-110491535D01*
X139698465Y-110686120D01*
X139927273Y-110839005D01*
X140004515Y-110871000D01*
X139927273Y-110902995D01*
X139698465Y-111055880D01*
X139503880Y-111250465D01*
X139350995Y-111479273D01*
X139245686Y-111733510D01*
X139192000Y-112003408D01*
X139192000Y-112278592D01*
X139245686Y-112548490D01*
X139350995Y-112802727D01*
X139503880Y-113031535D01*
X139698465Y-113226120D01*
X139927273Y-113379005D01*
X140004515Y-113411000D01*
X139927273Y-113442995D01*
X139698465Y-113595880D01*
X139503880Y-113790465D01*
X139350995Y-114019273D01*
X139245686Y-114273510D01*
X139192000Y-114543408D01*
X139192000Y-114818592D01*
X139245686Y-115088490D01*
X139350995Y-115342727D01*
X139503880Y-115571535D01*
X139698465Y-115766120D01*
X139927273Y-115919005D01*
X140004515Y-115951000D01*
X139927273Y-115982995D01*
X139698465Y-116135880D01*
X139503880Y-116330465D01*
X139350995Y-116559273D01*
X139245686Y-116813510D01*
X139192000Y-117083408D01*
X139192000Y-117358592D01*
X139245686Y-117628490D01*
X139350995Y-117882727D01*
X139503880Y-118111535D01*
X139698465Y-118306120D01*
X139927273Y-118459005D01*
X140004515Y-118491000D01*
X139927273Y-118522995D01*
X139698465Y-118675880D01*
X139503880Y-118870465D01*
X139350995Y-119099273D01*
X139245686Y-119353510D01*
X139192000Y-119623408D01*
X139192000Y-119898592D01*
X139245686Y-120168490D01*
X139350995Y-120422727D01*
X139503880Y-120651535D01*
X139698465Y-120846120D01*
X139927273Y-120999005D01*
X140181510Y-121104314D01*
X140451408Y-121158000D01*
X140726592Y-121158000D01*
X140996490Y-121104314D01*
X141250727Y-120999005D01*
X141479535Y-120846120D01*
X141674120Y-120651535D01*
X141827005Y-120422727D01*
X141932314Y-120168490D01*
X141986000Y-119898592D01*
X141986000Y-119623408D01*
X141932314Y-119353510D01*
X141827005Y-119099273D01*
X141674120Y-118870465D01*
X141479535Y-118675880D01*
X141250727Y-118522995D01*
X141173485Y-118491000D01*
X141250727Y-118459005D01*
X141479535Y-118306120D01*
X141674120Y-118111535D01*
X141827005Y-117882727D01*
X141932314Y-117628490D01*
X141986000Y-117358592D01*
X141986000Y-117083408D01*
X141932314Y-116813510D01*
X141827005Y-116559273D01*
X141674120Y-116330465D01*
X141479535Y-116135880D01*
X141250727Y-115982995D01*
X141173485Y-115951000D01*
X141250727Y-115919005D01*
X141479535Y-115766120D01*
X141674120Y-115571535D01*
X141827005Y-115342727D01*
X141932314Y-115088490D01*
X141986000Y-114818592D01*
X141986000Y-114543408D01*
X141932314Y-114273510D01*
X141827005Y-114019273D01*
X141674120Y-113790465D01*
X141479535Y-113595880D01*
X141250727Y-113442995D01*
X141173485Y-113411000D01*
X141250727Y-113379005D01*
X141479535Y-113226120D01*
X141674120Y-113031535D01*
X141827005Y-112802727D01*
X141932314Y-112548490D01*
X141986000Y-112278592D01*
X141986000Y-112003408D01*
X141932314Y-111733510D01*
X141827005Y-111479273D01*
X141674120Y-111250465D01*
X141479535Y-111055880D01*
X141250727Y-110902995D01*
X141173485Y-110871000D01*
X141250727Y-110839005D01*
X141479535Y-110686120D01*
X141674120Y-110491535D01*
X141827005Y-110262727D01*
X141932314Y-110008490D01*
X141986000Y-109738592D01*
X141986000Y-109463408D01*
X141932314Y-109193510D01*
X141827005Y-108939273D01*
X141674120Y-108710465D01*
X141479535Y-108515880D01*
X141250727Y-108362995D01*
X141173485Y-108331000D01*
X141250727Y-108299005D01*
X141479535Y-108146120D01*
X141674120Y-107951535D01*
X141827005Y-107722727D01*
X141932314Y-107468490D01*
X141986000Y-107198592D01*
X141986000Y-106923408D01*
X141932314Y-106653510D01*
X141854231Y-106465000D01*
X145323928Y-106465000D01*
X145323928Y-108165000D01*
X145336188Y-108289482D01*
X145372498Y-108409180D01*
X145431463Y-108519494D01*
X145510815Y-108616185D01*
X145607506Y-108695537D01*
X145717820Y-108754502D01*
X145790380Y-108776513D01*
X145658525Y-108908368D01*
X145496010Y-109151589D01*
X145384068Y-109421842D01*
X145327000Y-109708740D01*
X145327000Y-110001260D01*
X145384068Y-110288158D01*
X145496010Y-110558411D01*
X145658525Y-110801632D01*
X145865368Y-111008475D01*
X146039760Y-111125000D01*
X145865368Y-111241525D01*
X145658525Y-111448368D01*
X145496010Y-111691589D01*
X145384068Y-111961842D01*
X145327000Y-112248740D01*
X145327000Y-112541260D01*
X145384068Y-112828158D01*
X145496010Y-113098411D01*
X145658525Y-113341632D01*
X145865368Y-113548475D01*
X146039760Y-113665000D01*
X145865368Y-113781525D01*
X145658525Y-113988368D01*
X145496010Y-114231589D01*
X145384068Y-114501842D01*
X145327000Y-114788740D01*
X145327000Y-115081260D01*
X145384068Y-115368158D01*
X145496010Y-115638411D01*
X145658525Y-115881632D01*
X145865368Y-116088475D01*
X146108589Y-116250990D01*
X146378842Y-116362932D01*
X146665740Y-116420000D01*
X146958260Y-116420000D01*
X147245158Y-116362932D01*
X147515411Y-116250990D01*
X147758632Y-116088475D01*
X147965475Y-115881632D01*
X148127990Y-115638411D01*
X148239932Y-115368158D01*
X148297000Y-115081260D01*
X148297000Y-114788740D01*
X148239932Y-114501842D01*
X148127990Y-114231589D01*
X147965475Y-113988368D01*
X147758632Y-113781525D01*
X147584240Y-113665000D01*
X147758632Y-113548475D01*
X147965475Y-113341632D01*
X148127990Y-113098411D01*
X148239932Y-112828158D01*
X148297000Y-112541260D01*
X148297000Y-112248740D01*
X148239932Y-111961842D01*
X148127990Y-111691589D01*
X147965475Y-111448368D01*
X147758632Y-111241525D01*
X147584240Y-111125000D01*
X147758632Y-111008475D01*
X147965475Y-110801632D01*
X148127990Y-110558411D01*
X148239932Y-110288158D01*
X148297000Y-110001260D01*
X148297000Y-109708740D01*
X148239932Y-109421842D01*
X148127990Y-109151589D01*
X147965475Y-108908368D01*
X147833620Y-108776513D01*
X147906180Y-108754502D01*
X148016494Y-108695537D01*
X148113185Y-108616185D01*
X148192537Y-108519494D01*
X148251502Y-108409180D01*
X148287812Y-108289482D01*
X148300072Y-108165000D01*
X148300072Y-106465000D01*
X148287812Y-106340518D01*
X148251502Y-106220820D01*
X148192537Y-106110506D01*
X148113185Y-106013815D01*
X148016494Y-105934463D01*
X147906180Y-105875498D01*
X147786482Y-105839188D01*
X147662000Y-105826928D01*
X145962000Y-105826928D01*
X145837518Y-105839188D01*
X145717820Y-105875498D01*
X145607506Y-105934463D01*
X145510815Y-106013815D01*
X145431463Y-106110506D01*
X145372498Y-106220820D01*
X145336188Y-106340518D01*
X145323928Y-106465000D01*
X141854231Y-106465000D01*
X141827005Y-106399273D01*
X141674120Y-106170465D01*
X141479535Y-105975880D01*
X141250727Y-105822995D01*
X141179057Y-105793308D01*
X141192023Y-105788636D01*
X141307980Y-105726656D01*
X141374960Y-105486565D01*
X140589000Y-104700605D01*
X139803040Y-105486565D01*
X139870020Y-105726656D01*
X140005760Y-105790485D01*
X139927273Y-105822995D01*
X139698465Y-105975880D01*
X139503880Y-106170465D01*
X139350995Y-106399273D01*
X139245686Y-106653510D01*
X139192000Y-106923408D01*
X129286000Y-106923408D01*
X129232314Y-106653510D01*
X129127005Y-106399273D01*
X128974120Y-106170465D01*
X128779535Y-105975880D01*
X128550727Y-105822995D01*
X128473485Y-105791000D01*
X128550727Y-105759005D01*
X128779535Y-105606120D01*
X128974120Y-105411535D01*
X129127005Y-105182727D01*
X129232314Y-104928490D01*
X129286000Y-104658592D01*
X129286000Y-104593017D01*
X139187090Y-104593017D01*
X139228078Y-104865133D01*
X139321364Y-105124023D01*
X139383344Y-105239980D01*
X139623435Y-105306960D01*
X140409395Y-104521000D01*
X140768605Y-104521000D01*
X141554565Y-105306960D01*
X141794656Y-105239980D01*
X141911756Y-104990952D01*
X141978023Y-104723865D01*
X141990910Y-104448983D01*
X141949922Y-104176867D01*
X141856636Y-103917977D01*
X141794656Y-103802020D01*
X141554565Y-103735040D01*
X140768605Y-104521000D01*
X140409395Y-104521000D01*
X139623435Y-103735040D01*
X139383344Y-103802020D01*
X139266244Y-104051048D01*
X139199977Y-104318135D01*
X139187090Y-104593017D01*
X129286000Y-104593017D01*
X129286000Y-104383408D01*
X129232314Y-104113510D01*
X129127005Y-103859273D01*
X128974120Y-103630465D01*
X128779535Y-103435880D01*
X128550727Y-103282995D01*
X128473485Y-103251000D01*
X128550727Y-103219005D01*
X128779535Y-103066120D01*
X128974120Y-102871535D01*
X129127005Y-102642727D01*
X129232314Y-102388490D01*
X129286000Y-102118592D01*
X129286000Y-101843408D01*
X139192000Y-101843408D01*
X139192000Y-102118592D01*
X139245686Y-102388490D01*
X139350995Y-102642727D01*
X139503880Y-102871535D01*
X139698465Y-103066120D01*
X139927273Y-103219005D01*
X139998943Y-103248692D01*
X139985977Y-103253364D01*
X139870020Y-103315344D01*
X139803040Y-103555435D01*
X140589000Y-104341395D01*
X141374960Y-103555435D01*
X141307980Y-103315344D01*
X141172240Y-103251515D01*
X141250727Y-103219005D01*
X141479535Y-103066120D01*
X141674120Y-102871535D01*
X141827005Y-102642727D01*
X141932314Y-102388490D01*
X141986000Y-102118592D01*
X141986000Y-101843408D01*
X141932314Y-101573510D01*
X141827005Y-101319273D01*
X141674120Y-101090465D01*
X141479535Y-100895880D01*
X141250727Y-100742995D01*
X140996490Y-100637686D01*
X140726592Y-100584000D01*
X140451408Y-100584000D01*
X140181510Y-100637686D01*
X139927273Y-100742995D01*
X139698465Y-100895880D01*
X139503880Y-101090465D01*
X139350995Y-101319273D01*
X139245686Y-101573510D01*
X139192000Y-101843408D01*
X129286000Y-101843408D01*
X129232314Y-101573510D01*
X129127005Y-101319273D01*
X128974120Y-101090465D01*
X128779535Y-100895880D01*
X128550727Y-100742995D01*
X128296490Y-100637686D01*
X128026592Y-100584000D01*
X127751408Y-100584000D01*
X127481510Y-100637686D01*
X127227273Y-100742995D01*
X126998465Y-100895880D01*
X126803880Y-101090465D01*
X126650995Y-101319273D01*
X126545686Y-101573510D01*
X126492000Y-101843408D01*
X126492000Y-102118592D01*
X126545686Y-102388490D01*
X126650995Y-102642727D01*
X126803880Y-102871535D01*
X126998465Y-103066120D01*
X127227273Y-103219005D01*
X127304515Y-103251000D01*
X127227273Y-103282995D01*
X126998465Y-103435880D01*
X126803880Y-103630465D01*
X126650995Y-103859273D01*
X126545686Y-104113510D01*
X126492000Y-104383408D01*
X126492000Y-104658592D01*
X126545686Y-104928490D01*
X126650995Y-105182727D01*
X126803880Y-105411535D01*
X126998465Y-105606120D01*
X127227273Y-105759005D01*
X127304515Y-105791000D01*
X127227273Y-105822995D01*
X126998465Y-105975880D01*
X126803880Y-106170465D01*
X126650995Y-106399273D01*
X126545686Y-106653510D01*
X126492000Y-106923408D01*
X126492000Y-107198592D01*
X126545686Y-107468490D01*
X126650995Y-107722727D01*
X126803880Y-107951535D01*
X126998465Y-108146120D01*
X127227273Y-108299005D01*
X127304515Y-108331000D01*
X127227273Y-108362995D01*
X126998465Y-108515880D01*
X126803880Y-108710465D01*
X126650995Y-108939273D01*
X126545686Y-109193510D01*
X126492000Y-109463408D01*
X126492000Y-109669199D01*
X125824400Y-109001599D01*
X125824400Y-108625011D01*
X125868337Y-108581074D01*
X125981605Y-108411556D01*
X126059626Y-108223198D01*
X126099400Y-108023239D01*
X126099400Y-107819361D01*
X126059626Y-107619402D01*
X125981605Y-107431044D01*
X125868337Y-107261526D01*
X125724174Y-107117363D01*
X125554656Y-107004095D01*
X125366298Y-106926074D01*
X125166339Y-106886300D01*
X124962461Y-106886300D01*
X124762502Y-106926074D01*
X124574144Y-107004095D01*
X124404626Y-107117363D01*
X124260463Y-107261526D01*
X124147195Y-107431044D01*
X124069174Y-107619402D01*
X124029400Y-107819361D01*
X110258864Y-107819361D01*
X97519804Y-95080303D01*
X97673475Y-94926632D01*
X97835990Y-94683411D01*
X97947932Y-94413158D01*
X98005000Y-94126260D01*
X98005000Y-93833740D01*
X97947932Y-93546842D01*
X97835990Y-93276589D01*
X97673475Y-93033368D01*
X97643107Y-93003000D01*
X100619928Y-93003000D01*
X100619928Y-94703000D01*
X100632188Y-94827482D01*
X100668498Y-94947180D01*
X100727463Y-95057494D01*
X100806815Y-95154185D01*
X100903506Y-95233537D01*
X101013820Y-95292502D01*
X101133518Y-95328812D01*
X101258000Y-95341072D01*
X102958000Y-95341072D01*
X103082482Y-95328812D01*
X103202180Y-95292502D01*
X103312494Y-95233537D01*
X103409185Y-95154185D01*
X103488537Y-95057494D01*
X103547502Y-94947180D01*
X103571966Y-94866534D01*
X103647731Y-94950588D01*
X103881080Y-95124641D01*
X104143901Y-95249825D01*
X104291110Y-95294476D01*
X104521000Y-95173155D01*
X104521000Y-93980000D01*
X104775000Y-93980000D01*
X104775000Y-95173155D01*
X105004890Y-95294476D01*
X105152099Y-95249825D01*
X105414920Y-95124641D01*
X105648269Y-94950588D01*
X105843178Y-94734355D01*
X105992157Y-94484252D01*
X106089481Y-94209891D01*
X105968814Y-93980000D01*
X104775000Y-93980000D01*
X104521000Y-93980000D01*
X104501000Y-93980000D01*
X104501000Y-93726000D01*
X104521000Y-93726000D01*
X104521000Y-92532845D01*
X104775000Y-92532845D01*
X104775000Y-93726000D01*
X105968814Y-93726000D01*
X106089481Y-93496109D01*
X105992157Y-93221748D01*
X105843178Y-92971645D01*
X105648269Y-92755412D01*
X105414920Y-92581359D01*
X105152099Y-92456175D01*
X105004890Y-92411524D01*
X104775000Y-92532845D01*
X104521000Y-92532845D01*
X104291110Y-92411524D01*
X104143901Y-92456175D01*
X103881080Y-92581359D01*
X103647731Y-92755412D01*
X103571966Y-92839466D01*
X103547502Y-92758820D01*
X103488537Y-92648506D01*
X103409185Y-92551815D01*
X103312494Y-92472463D01*
X103202180Y-92413498D01*
X103082482Y-92377188D01*
X102958000Y-92364928D01*
X101258000Y-92364928D01*
X101133518Y-92377188D01*
X101013820Y-92413498D01*
X100903506Y-92472463D01*
X100806815Y-92551815D01*
X100727463Y-92648506D01*
X100668498Y-92758820D01*
X100632188Y-92878518D01*
X100619928Y-93003000D01*
X97643107Y-93003000D01*
X97466632Y-92826525D01*
X97223411Y-92664010D01*
X96953158Y-92552068D01*
X96666260Y-92495000D01*
X96373740Y-92495000D01*
X96086842Y-92552068D01*
X95816589Y-92664010D01*
X95573368Y-92826525D01*
X95366525Y-93033368D01*
X95250000Y-93207760D01*
X95133475Y-93033368D01*
X94926632Y-92826525D01*
X94683411Y-92664010D01*
X94413158Y-92552068D01*
X94126260Y-92495000D01*
X93833740Y-92495000D01*
X93546842Y-92552068D01*
X93276589Y-92664010D01*
X93033368Y-92826525D01*
X92826525Y-93033368D01*
X92704805Y-93215534D01*
X92635178Y-93098645D01*
X92440269Y-92882412D01*
X92206920Y-92708359D01*
X91944099Y-92583175D01*
X91796890Y-92538524D01*
X91567000Y-92659845D01*
X91313000Y-92659845D01*
X91083110Y-92538524D01*
X90935901Y-92583175D01*
X90673080Y-92708359D01*
X90439731Y-92882412D01*
X90363966Y-92966466D01*
X90339502Y-92885820D01*
X90280537Y-92775506D01*
X90201185Y-92678815D01*
X90104494Y-92599463D01*
X89994180Y-92540498D01*
X89874482Y-92504188D01*
X89750000Y-92491928D01*
X88050000Y-92491928D01*
X87925518Y-92504188D01*
X87805820Y-92540498D01*
X87695506Y-92599463D01*
X87598815Y-92678815D01*
X87519463Y-92775506D01*
X87460498Y-92885820D01*
X87424188Y-93005518D01*
X87411928Y-93130000D01*
X77672216Y-93130000D01*
X82466121Y-89258000D01*
X116456895Y-89258000D01*
X118892282Y-93032850D01*
G37*
X118892282Y-93032850D02*
X118907765Y-93052347D01*
X118926754Y-93068448D01*
X118948519Y-93080536D01*
X118972224Y-93088145D01*
X118999000Y-93091000D01*
X140158128Y-93091000D01*
X148971000Y-101274381D01*
X148971000Y-117172715D01*
X143960870Y-122809111D01*
X78934879Y-122935867D01*
X73230000Y-114378548D01*
X73230000Y-109097472D01*
X73278600Y-109112215D01*
X73449021Y-109129000D01*
X74412979Y-109129000D01*
X74583400Y-109112215D01*
X74802060Y-109045885D01*
X75003579Y-108938171D01*
X75180212Y-108793212D01*
X75325171Y-108616579D01*
X75432885Y-108415060D01*
X75499215Y-108196400D01*
X75521612Y-107969000D01*
X75499215Y-107741600D01*
X75432885Y-107522940D01*
X75325171Y-107321421D01*
X75180212Y-107144788D01*
X75003579Y-106999829D01*
X74802060Y-106892115D01*
X74583400Y-106825785D01*
X74412979Y-106809000D01*
X73449021Y-106809000D01*
X73278600Y-106825785D01*
X73230000Y-106840528D01*
X73230000Y-103734461D01*
X77407500Y-103734461D01*
X77407500Y-103938339D01*
X77447274Y-104138298D01*
X77525295Y-104326656D01*
X77638563Y-104496174D01*
X77782726Y-104640337D01*
X77952244Y-104753605D01*
X78140602Y-104831626D01*
X78340561Y-104871400D01*
X78544439Y-104871400D01*
X78744398Y-104831626D01*
X78932756Y-104753605D01*
X79102274Y-104640337D01*
X79146211Y-104596400D01*
X86272199Y-104596400D01*
X89193300Y-107517502D01*
X89193300Y-107579639D01*
X89233074Y-107779598D01*
X89311095Y-107967956D01*
X89424363Y-108137474D01*
X89568526Y-108281637D01*
X89738044Y-108394905D01*
X89926402Y-108472926D01*
X90126361Y-108512700D01*
X90330239Y-108512700D01*
X90530198Y-108472926D01*
X90718556Y-108394905D01*
X90888074Y-108281637D01*
X91032237Y-108137474D01*
X91145505Y-107967956D01*
X91223526Y-107779598D01*
X91263300Y-107579639D01*
X91263300Y-107375761D01*
X91223526Y-107175802D01*
X91145505Y-106987444D01*
X91032237Y-106817926D01*
X90888074Y-106673763D01*
X90718556Y-106560495D01*
X90530198Y-106482474D01*
X90330239Y-106442700D01*
X90268102Y-106442700D01*
X87150804Y-103325403D01*
X87127001Y-103296399D01*
X87011276Y-103201426D01*
X86879247Y-103130854D01*
X86735986Y-103087397D01*
X86624333Y-103076400D01*
X86624322Y-103076400D01*
X86587000Y-103072724D01*
X86549678Y-103076400D01*
X79146211Y-103076400D01*
X79102274Y-103032463D01*
X78932756Y-102919195D01*
X78744398Y-102841174D01*
X78544439Y-102801400D01*
X78340561Y-102801400D01*
X78140602Y-102841174D01*
X77952244Y-102919195D01*
X77782726Y-103032463D01*
X77638563Y-103176626D01*
X77525295Y-103346144D01*
X77447274Y-103534502D01*
X77407500Y-103734461D01*
X73230000Y-103734461D01*
X73230000Y-101947472D01*
X73278600Y-101962215D01*
X73449021Y-101979000D01*
X74412979Y-101979000D01*
X74583400Y-101962215D01*
X74802060Y-101895885D01*
X75003579Y-101788171D01*
X75180212Y-101643212D01*
X75325171Y-101466579D01*
X75432885Y-101265060D01*
X75499215Y-101046400D01*
X75521612Y-100819000D01*
X75499215Y-100591600D01*
X75432885Y-100372940D01*
X75325171Y-100171421D01*
X75180212Y-99994788D01*
X75003579Y-99849829D01*
X74802060Y-99742115D01*
X74583400Y-99675785D01*
X74412979Y-99659000D01*
X73449021Y-99659000D01*
X73278600Y-99675785D01*
X73230000Y-99690528D01*
X73230000Y-96717944D01*
X77672216Y-93130000D01*
X87411928Y-93130000D01*
X87411928Y-94830000D01*
X87424188Y-94954482D01*
X87460498Y-95074180D01*
X87519463Y-95184494D01*
X87598815Y-95281185D01*
X87695506Y-95360537D01*
X87805820Y-95419502D01*
X87925518Y-95455812D01*
X88050000Y-95468072D01*
X89750000Y-95468072D01*
X89874482Y-95455812D01*
X89994180Y-95419502D01*
X90104494Y-95360537D01*
X90201185Y-95281185D01*
X90280537Y-95184494D01*
X90339502Y-95074180D01*
X90363966Y-94993534D01*
X90439731Y-95077588D01*
X90673080Y-95251641D01*
X90935901Y-95376825D01*
X91083110Y-95421476D01*
X91313000Y-95300155D01*
X91313000Y-94107000D01*
X91293000Y-94107000D01*
X91293000Y-93853000D01*
X91313000Y-93853000D01*
X91313000Y-92659845D01*
X91567000Y-92659845D01*
X91567000Y-93853000D01*
X91587000Y-93853000D01*
X91587000Y-94107000D01*
X91567000Y-94107000D01*
X91567000Y-95300155D01*
X91796890Y-95421476D01*
X91944099Y-95376825D01*
X92206920Y-95251641D01*
X92440269Y-95077588D01*
X92635178Y-94861355D01*
X92704805Y-94744466D01*
X92826525Y-94926632D01*
X93033368Y-95133475D01*
X93220000Y-95258178D01*
X93220001Y-104472519D01*
X93201826Y-104484663D01*
X93057663Y-104628826D01*
X92944395Y-104798344D01*
X92866374Y-104986702D01*
X92826600Y-105186661D01*
X92826600Y-105390539D01*
X92866374Y-105590498D01*
X92944395Y-105778856D01*
X93057663Y-105948374D01*
X93201826Y-106092537D01*
X93371344Y-106205805D01*
X93559702Y-106283826D01*
X93759661Y-106323600D01*
X93963539Y-106323600D01*
X94163498Y-106283826D01*
X94351856Y-106205805D01*
X94521374Y-106092537D01*
X94665537Y-105948374D01*
X94778805Y-105778856D01*
X94856826Y-105590498D01*
X94896600Y-105390539D01*
X94896600Y-105186661D01*
X94856826Y-104986702D01*
X94778805Y-104798344D01*
X94740000Y-104740268D01*
X94740000Y-95258178D01*
X94926632Y-95133475D01*
X95133475Y-94926632D01*
X95250000Y-94752240D01*
X95366525Y-94926632D01*
X95573368Y-95133475D01*
X95766912Y-95262797D01*
X95770998Y-95304285D01*
X95814454Y-95447546D01*
X95885026Y-95579576D01*
X95956201Y-95666302D01*
X95980000Y-95695301D01*
X96008998Y-95719099D01*
X111882100Y-111592203D01*
X111882101Y-112292888D01*
X111838163Y-112336826D01*
X111724895Y-112506344D01*
X111646874Y-112694702D01*
X111607100Y-112894661D01*
X111607100Y-113098539D01*
X111646874Y-113298498D01*
X111724895Y-113486856D01*
X111838163Y-113656374D01*
X111982326Y-113800537D01*
X112151844Y-113913805D01*
X112340202Y-113991826D01*
X112540161Y-114031600D01*
X112744039Y-114031600D01*
X112943998Y-113991826D01*
X113132356Y-113913805D01*
X113301874Y-113800537D01*
X113446037Y-113656374D01*
X113559305Y-113486856D01*
X113637326Y-113298498D01*
X113677100Y-113098539D01*
X113677100Y-112894661D01*
X113637326Y-112694702D01*
X113559305Y-112506344D01*
X113446037Y-112336826D01*
X113402100Y-112292889D01*
X113402100Y-111314722D01*
X113405776Y-111277399D01*
X113402100Y-111240076D01*
X113402100Y-111240067D01*
X113391103Y-111128414D01*
X113347646Y-110985153D01*
X113277074Y-110853124D01*
X113234816Y-110801632D01*
X113205899Y-110766396D01*
X113205895Y-110766392D01*
X113182101Y-110737399D01*
X113153110Y-110713607D01*
X110258864Y-107819361D01*
X124029400Y-107819361D01*
X124029400Y-108023239D01*
X124069174Y-108223198D01*
X124147195Y-108411556D01*
X124260463Y-108581074D01*
X124304401Y-108625012D01*
X124304401Y-109279068D01*
X124300724Y-109316400D01*
X124315398Y-109465385D01*
X124358854Y-109608646D01*
X124429426Y-109740676D01*
X124500601Y-109827402D01*
X124524400Y-109856401D01*
X124553398Y-109880199D01*
X126522628Y-111849430D01*
X126492000Y-112003408D01*
X126492000Y-112278592D01*
X126545686Y-112548490D01*
X126650995Y-112802727D01*
X126803880Y-113031535D01*
X126998465Y-113226120D01*
X127227273Y-113379005D01*
X127304515Y-113411000D01*
X127227273Y-113442995D01*
X126998465Y-113595880D01*
X126803880Y-113790465D01*
X126650995Y-114019273D01*
X126545686Y-114273510D01*
X126492000Y-114543408D01*
X126492000Y-114818592D01*
X126545686Y-115088490D01*
X126650995Y-115342727D01*
X126803880Y-115571535D01*
X126998465Y-115766120D01*
X127227273Y-115919005D01*
X127304515Y-115951000D01*
X127227273Y-115982995D01*
X126998465Y-116135880D01*
X126803880Y-116330465D01*
X126650995Y-116559273D01*
X126545686Y-116813510D01*
X126492000Y-117083408D01*
X126492000Y-117358592D01*
X126545686Y-117628490D01*
X126650995Y-117882727D01*
X126803880Y-118111535D01*
X126998465Y-118306120D01*
X127227273Y-118459005D01*
X127304515Y-118491000D01*
X127227273Y-118522995D01*
X126998465Y-118675880D01*
X126803880Y-118870465D01*
X126650995Y-119099273D01*
X126545686Y-119353510D01*
X126492000Y-119623408D01*
X126492000Y-119898592D01*
X126545686Y-120168490D01*
X126650995Y-120422727D01*
X126803880Y-120651535D01*
X126998465Y-120846120D01*
X127227273Y-120999005D01*
X127481510Y-121104314D01*
X127751408Y-121158000D01*
X128026592Y-121158000D01*
X128296490Y-121104314D01*
X128550727Y-120999005D01*
X128779535Y-120846120D01*
X128974120Y-120651535D01*
X129127005Y-120422727D01*
X129232314Y-120168490D01*
X129286000Y-119898592D01*
X129286000Y-119623408D01*
X129232314Y-119353510D01*
X129127005Y-119099273D01*
X128974120Y-118870465D01*
X128779535Y-118675880D01*
X128550727Y-118522995D01*
X128473485Y-118491000D01*
X128550727Y-118459005D01*
X128779535Y-118306120D01*
X128974120Y-118111535D01*
X129127005Y-117882727D01*
X129232314Y-117628490D01*
X129286000Y-117358592D01*
X129286000Y-117083408D01*
X129232314Y-116813510D01*
X129127005Y-116559273D01*
X128974120Y-116330465D01*
X128779535Y-116135880D01*
X128550727Y-115982995D01*
X128473485Y-115951000D01*
X128550727Y-115919005D01*
X128779535Y-115766120D01*
X128974120Y-115571535D01*
X129127005Y-115342727D01*
X129232314Y-115088490D01*
X129286000Y-114818592D01*
X129286000Y-114543408D01*
X129232314Y-114273510D01*
X129127005Y-114019273D01*
X128974120Y-113790465D01*
X128779535Y-113595880D01*
X128550727Y-113442995D01*
X128473485Y-113411000D01*
X128550727Y-113379005D01*
X128779535Y-113226120D01*
X128974120Y-113031535D01*
X129127005Y-112802727D01*
X129232314Y-112548490D01*
X129286000Y-112278592D01*
X129286000Y-112003408D01*
X129232314Y-111733510D01*
X129127005Y-111479273D01*
X128974120Y-111250465D01*
X128779535Y-111055880D01*
X128550727Y-110902995D01*
X128473485Y-110871000D01*
X128550727Y-110839005D01*
X128779535Y-110686120D01*
X128974120Y-110491535D01*
X129127005Y-110262727D01*
X129232314Y-110008490D01*
X129286000Y-109738592D01*
X129286000Y-109463408D01*
X129232314Y-109193510D01*
X129127005Y-108939273D01*
X128974120Y-108710465D01*
X128779535Y-108515880D01*
X128550727Y-108362995D01*
X128473485Y-108331000D01*
X128550727Y-108299005D01*
X128779535Y-108146120D01*
X128974120Y-107951535D01*
X129127005Y-107722727D01*
X129232314Y-107468490D01*
X129286000Y-107198592D01*
X129286000Y-106923408D01*
X139192000Y-106923408D01*
X139192000Y-107198592D01*
X139245686Y-107468490D01*
X139350995Y-107722727D01*
X139503880Y-107951535D01*
X139698465Y-108146120D01*
X139927273Y-108299005D01*
X140004515Y-108331000D01*
X139927273Y-108362995D01*
X139698465Y-108515880D01*
X139503880Y-108710465D01*
X139350995Y-108939273D01*
X139245686Y-109193510D01*
X139192000Y-109463408D01*
X139192000Y-109738592D01*
X139245686Y-110008490D01*
X139350995Y-110262727D01*
X139503880Y-110491535D01*
X139698465Y-110686120D01*
X139927273Y-110839005D01*
X140004515Y-110871000D01*
X139927273Y-110902995D01*
X139698465Y-111055880D01*
X139503880Y-111250465D01*
X139350995Y-111479273D01*
X139245686Y-111733510D01*
X139192000Y-112003408D01*
X139192000Y-112278592D01*
X139245686Y-112548490D01*
X139350995Y-112802727D01*
X139503880Y-113031535D01*
X139698465Y-113226120D01*
X139927273Y-113379005D01*
X140004515Y-113411000D01*
X139927273Y-113442995D01*
X139698465Y-113595880D01*
X139503880Y-113790465D01*
X139350995Y-114019273D01*
X139245686Y-114273510D01*
X139192000Y-114543408D01*
X139192000Y-114818592D01*
X139245686Y-115088490D01*
X139350995Y-115342727D01*
X139503880Y-115571535D01*
X139698465Y-115766120D01*
X139927273Y-115919005D01*
X140004515Y-115951000D01*
X139927273Y-115982995D01*
X139698465Y-116135880D01*
X139503880Y-116330465D01*
X139350995Y-116559273D01*
X139245686Y-116813510D01*
X139192000Y-117083408D01*
X139192000Y-117358592D01*
X139245686Y-117628490D01*
X139350995Y-117882727D01*
X139503880Y-118111535D01*
X139698465Y-118306120D01*
X139927273Y-118459005D01*
X140004515Y-118491000D01*
X139927273Y-118522995D01*
X139698465Y-118675880D01*
X139503880Y-118870465D01*
X139350995Y-119099273D01*
X139245686Y-119353510D01*
X139192000Y-119623408D01*
X139192000Y-119898592D01*
X139245686Y-120168490D01*
X139350995Y-120422727D01*
X139503880Y-120651535D01*
X139698465Y-120846120D01*
X139927273Y-120999005D01*
X140181510Y-121104314D01*
X140451408Y-121158000D01*
X140726592Y-121158000D01*
X140996490Y-121104314D01*
X141250727Y-120999005D01*
X141479535Y-120846120D01*
X141674120Y-120651535D01*
X141827005Y-120422727D01*
X141932314Y-120168490D01*
X141986000Y-119898592D01*
X141986000Y-119623408D01*
X141932314Y-119353510D01*
X141827005Y-119099273D01*
X141674120Y-118870465D01*
X141479535Y-118675880D01*
X141250727Y-118522995D01*
X141173485Y-118491000D01*
X141250727Y-118459005D01*
X141479535Y-118306120D01*
X141674120Y-118111535D01*
X141827005Y-117882727D01*
X141932314Y-117628490D01*
X141986000Y-117358592D01*
X141986000Y-117083408D01*
X141932314Y-116813510D01*
X141827005Y-116559273D01*
X141674120Y-116330465D01*
X141479535Y-116135880D01*
X141250727Y-115982995D01*
X141173485Y-115951000D01*
X141250727Y-115919005D01*
X141479535Y-115766120D01*
X141674120Y-115571535D01*
X141827005Y-115342727D01*
X141932314Y-115088490D01*
X141986000Y-114818592D01*
X141986000Y-114543408D01*
X141932314Y-114273510D01*
X141827005Y-114019273D01*
X141674120Y-113790465D01*
X141479535Y-113595880D01*
X141250727Y-113442995D01*
X141173485Y-113411000D01*
X141250727Y-113379005D01*
X141479535Y-113226120D01*
X141674120Y-113031535D01*
X141827005Y-112802727D01*
X141932314Y-112548490D01*
X141986000Y-112278592D01*
X141986000Y-112003408D01*
X141932314Y-111733510D01*
X141827005Y-111479273D01*
X141674120Y-111250465D01*
X141479535Y-111055880D01*
X141250727Y-110902995D01*
X141173485Y-110871000D01*
X141250727Y-110839005D01*
X141479535Y-110686120D01*
X141674120Y-110491535D01*
X141827005Y-110262727D01*
X141932314Y-110008490D01*
X141986000Y-109738592D01*
X141986000Y-109463408D01*
X141932314Y-109193510D01*
X141827005Y-108939273D01*
X141674120Y-108710465D01*
X141479535Y-108515880D01*
X141250727Y-108362995D01*
X141173485Y-108331000D01*
X141250727Y-108299005D01*
X141479535Y-108146120D01*
X141674120Y-107951535D01*
X141827005Y-107722727D01*
X141932314Y-107468490D01*
X141986000Y-107198592D01*
X141986000Y-106923408D01*
X141932314Y-106653510D01*
X141854231Y-106465000D01*
X145323928Y-106465000D01*
X145323928Y-108165000D01*
X145336188Y-108289482D01*
X145372498Y-108409180D01*
X145431463Y-108519494D01*
X145510815Y-108616185D01*
X145607506Y-108695537D01*
X145717820Y-108754502D01*
X145790380Y-108776513D01*
X145658525Y-108908368D01*
X145496010Y-109151589D01*
X145384068Y-109421842D01*
X145327000Y-109708740D01*
X145327000Y-110001260D01*
X145384068Y-110288158D01*
X145496010Y-110558411D01*
X145658525Y-110801632D01*
X145865368Y-111008475D01*
X146039760Y-111125000D01*
X145865368Y-111241525D01*
X145658525Y-111448368D01*
X145496010Y-111691589D01*
X145384068Y-111961842D01*
X145327000Y-112248740D01*
X145327000Y-112541260D01*
X145384068Y-112828158D01*
X145496010Y-113098411D01*
X145658525Y-113341632D01*
X145865368Y-113548475D01*
X146039760Y-113665000D01*
X145865368Y-113781525D01*
X145658525Y-113988368D01*
X145496010Y-114231589D01*
X145384068Y-114501842D01*
X145327000Y-114788740D01*
X145327000Y-115081260D01*
X145384068Y-115368158D01*
X145496010Y-115638411D01*
X145658525Y-115881632D01*
X145865368Y-116088475D01*
X146108589Y-116250990D01*
X146378842Y-116362932D01*
X146665740Y-116420000D01*
X146958260Y-116420000D01*
X147245158Y-116362932D01*
X147515411Y-116250990D01*
X147758632Y-116088475D01*
X147965475Y-115881632D01*
X148127990Y-115638411D01*
X148239932Y-115368158D01*
X148297000Y-115081260D01*
X148297000Y-114788740D01*
X148239932Y-114501842D01*
X148127990Y-114231589D01*
X147965475Y-113988368D01*
X147758632Y-113781525D01*
X147584240Y-113665000D01*
X147758632Y-113548475D01*
X147965475Y-113341632D01*
X148127990Y-113098411D01*
X148239932Y-112828158D01*
X148297000Y-112541260D01*
X148297000Y-112248740D01*
X148239932Y-111961842D01*
X148127990Y-111691589D01*
X147965475Y-111448368D01*
X147758632Y-111241525D01*
X147584240Y-111125000D01*
X147758632Y-111008475D01*
X147965475Y-110801632D01*
X148127990Y-110558411D01*
X148239932Y-110288158D01*
X148297000Y-110001260D01*
X148297000Y-109708740D01*
X148239932Y-109421842D01*
X148127990Y-109151589D01*
X147965475Y-108908368D01*
X147833620Y-108776513D01*
X147906180Y-108754502D01*
X148016494Y-108695537D01*
X148113185Y-108616185D01*
X148192537Y-108519494D01*
X148251502Y-108409180D01*
X148287812Y-108289482D01*
X148300072Y-108165000D01*
X148300072Y-106465000D01*
X148287812Y-106340518D01*
X148251502Y-106220820D01*
X148192537Y-106110506D01*
X148113185Y-106013815D01*
X148016494Y-105934463D01*
X147906180Y-105875498D01*
X147786482Y-105839188D01*
X147662000Y-105826928D01*
X145962000Y-105826928D01*
X145837518Y-105839188D01*
X145717820Y-105875498D01*
X145607506Y-105934463D01*
X145510815Y-106013815D01*
X145431463Y-106110506D01*
X145372498Y-106220820D01*
X145336188Y-106340518D01*
X145323928Y-106465000D01*
X141854231Y-106465000D01*
X141827005Y-106399273D01*
X141674120Y-106170465D01*
X141479535Y-105975880D01*
X141250727Y-105822995D01*
X141179057Y-105793308D01*
X141192023Y-105788636D01*
X141307980Y-105726656D01*
X141374960Y-105486565D01*
X140589000Y-104700605D01*
X139803040Y-105486565D01*
X139870020Y-105726656D01*
X140005760Y-105790485D01*
X139927273Y-105822995D01*
X139698465Y-105975880D01*
X139503880Y-106170465D01*
X139350995Y-106399273D01*
X139245686Y-106653510D01*
X139192000Y-106923408D01*
X129286000Y-106923408D01*
X129232314Y-106653510D01*
X129127005Y-106399273D01*
X128974120Y-106170465D01*
X128779535Y-105975880D01*
X128550727Y-105822995D01*
X128473485Y-105791000D01*
X128550727Y-105759005D01*
X128779535Y-105606120D01*
X128974120Y-105411535D01*
X129127005Y-105182727D01*
X129232314Y-104928490D01*
X129286000Y-104658592D01*
X129286000Y-104593017D01*
X139187090Y-104593017D01*
X139228078Y-104865133D01*
X139321364Y-105124023D01*
X139383344Y-105239980D01*
X139623435Y-105306960D01*
X140409395Y-104521000D01*
X140768605Y-104521000D01*
X141554565Y-105306960D01*
X141794656Y-105239980D01*
X141911756Y-104990952D01*
X141978023Y-104723865D01*
X141990910Y-104448983D01*
X141949922Y-104176867D01*
X141856636Y-103917977D01*
X141794656Y-103802020D01*
X141554565Y-103735040D01*
X140768605Y-104521000D01*
X140409395Y-104521000D01*
X139623435Y-103735040D01*
X139383344Y-103802020D01*
X139266244Y-104051048D01*
X139199977Y-104318135D01*
X139187090Y-104593017D01*
X129286000Y-104593017D01*
X129286000Y-104383408D01*
X129232314Y-104113510D01*
X129127005Y-103859273D01*
X128974120Y-103630465D01*
X128779535Y-103435880D01*
X128550727Y-103282995D01*
X128473485Y-103251000D01*
X128550727Y-103219005D01*
X128779535Y-103066120D01*
X128974120Y-102871535D01*
X129127005Y-102642727D01*
X129232314Y-102388490D01*
X129286000Y-102118592D01*
X129286000Y-101843408D01*
X139192000Y-101843408D01*
X139192000Y-102118592D01*
X139245686Y-102388490D01*
X139350995Y-102642727D01*
X139503880Y-102871535D01*
X139698465Y-103066120D01*
X139927273Y-103219005D01*
X139998943Y-103248692D01*
X139985977Y-103253364D01*
X139870020Y-103315344D01*
X139803040Y-103555435D01*
X140589000Y-104341395D01*
X141374960Y-103555435D01*
X141307980Y-103315344D01*
X141172240Y-103251515D01*
X141250727Y-103219005D01*
X141479535Y-103066120D01*
X141674120Y-102871535D01*
X141827005Y-102642727D01*
X141932314Y-102388490D01*
X141986000Y-102118592D01*
X141986000Y-101843408D01*
X141932314Y-101573510D01*
X141827005Y-101319273D01*
X141674120Y-101090465D01*
X141479535Y-100895880D01*
X141250727Y-100742995D01*
X140996490Y-100637686D01*
X140726592Y-100584000D01*
X140451408Y-100584000D01*
X140181510Y-100637686D01*
X139927273Y-100742995D01*
X139698465Y-100895880D01*
X139503880Y-101090465D01*
X139350995Y-101319273D01*
X139245686Y-101573510D01*
X139192000Y-101843408D01*
X129286000Y-101843408D01*
X129232314Y-101573510D01*
X129127005Y-101319273D01*
X128974120Y-101090465D01*
X128779535Y-100895880D01*
X128550727Y-100742995D01*
X128296490Y-100637686D01*
X128026592Y-100584000D01*
X127751408Y-100584000D01*
X127481510Y-100637686D01*
X127227273Y-100742995D01*
X126998465Y-100895880D01*
X126803880Y-101090465D01*
X126650995Y-101319273D01*
X126545686Y-101573510D01*
X126492000Y-101843408D01*
X126492000Y-102118592D01*
X126545686Y-102388490D01*
X126650995Y-102642727D01*
X126803880Y-102871535D01*
X126998465Y-103066120D01*
X127227273Y-103219005D01*
X127304515Y-103251000D01*
X127227273Y-103282995D01*
X126998465Y-103435880D01*
X126803880Y-103630465D01*
X126650995Y-103859273D01*
X126545686Y-104113510D01*
X126492000Y-104383408D01*
X126492000Y-104658592D01*
X126545686Y-104928490D01*
X126650995Y-105182727D01*
X126803880Y-105411535D01*
X126998465Y-105606120D01*
X127227273Y-105759005D01*
X127304515Y-105791000D01*
X127227273Y-105822995D01*
X126998465Y-105975880D01*
X126803880Y-106170465D01*
X126650995Y-106399273D01*
X126545686Y-106653510D01*
X126492000Y-106923408D01*
X126492000Y-107198592D01*
X126545686Y-107468490D01*
X126650995Y-107722727D01*
X126803880Y-107951535D01*
X126998465Y-108146120D01*
X127227273Y-108299005D01*
X127304515Y-108331000D01*
X127227273Y-108362995D01*
X126998465Y-108515880D01*
X126803880Y-108710465D01*
X126650995Y-108939273D01*
X126545686Y-109193510D01*
X126492000Y-109463408D01*
X126492000Y-109669199D01*
X125824400Y-109001599D01*
X125824400Y-108625011D01*
X125868337Y-108581074D01*
X125981605Y-108411556D01*
X126059626Y-108223198D01*
X126099400Y-108023239D01*
X126099400Y-107819361D01*
X126059626Y-107619402D01*
X125981605Y-107431044D01*
X125868337Y-107261526D01*
X125724174Y-107117363D01*
X125554656Y-107004095D01*
X125366298Y-106926074D01*
X125166339Y-106886300D01*
X124962461Y-106886300D01*
X124762502Y-106926074D01*
X124574144Y-107004095D01*
X124404626Y-107117363D01*
X124260463Y-107261526D01*
X124147195Y-107431044D01*
X124069174Y-107619402D01*
X124029400Y-107819361D01*
X110258864Y-107819361D01*
X97519804Y-95080303D01*
X97673475Y-94926632D01*
X97835990Y-94683411D01*
X97947932Y-94413158D01*
X98005000Y-94126260D01*
X98005000Y-93833740D01*
X97947932Y-93546842D01*
X97835990Y-93276589D01*
X97673475Y-93033368D01*
X97643107Y-93003000D01*
X100619928Y-93003000D01*
X100619928Y-94703000D01*
X100632188Y-94827482D01*
X100668498Y-94947180D01*
X100727463Y-95057494D01*
X100806815Y-95154185D01*
X100903506Y-95233537D01*
X101013820Y-95292502D01*
X101133518Y-95328812D01*
X101258000Y-95341072D01*
X102958000Y-95341072D01*
X103082482Y-95328812D01*
X103202180Y-95292502D01*
X103312494Y-95233537D01*
X103409185Y-95154185D01*
X103488537Y-95057494D01*
X103547502Y-94947180D01*
X103571966Y-94866534D01*
X103647731Y-94950588D01*
X103881080Y-95124641D01*
X104143901Y-95249825D01*
X104291110Y-95294476D01*
X104521000Y-95173155D01*
X104521000Y-93980000D01*
X104775000Y-93980000D01*
X104775000Y-95173155D01*
X105004890Y-95294476D01*
X105152099Y-95249825D01*
X105414920Y-95124641D01*
X105648269Y-94950588D01*
X105843178Y-94734355D01*
X105992157Y-94484252D01*
X106089481Y-94209891D01*
X105968814Y-93980000D01*
X104775000Y-93980000D01*
X104521000Y-93980000D01*
X104501000Y-93980000D01*
X104501000Y-93726000D01*
X104521000Y-93726000D01*
X104521000Y-92532845D01*
X104775000Y-92532845D01*
X104775000Y-93726000D01*
X105968814Y-93726000D01*
X106089481Y-93496109D01*
X105992157Y-93221748D01*
X105843178Y-92971645D01*
X105648269Y-92755412D01*
X105414920Y-92581359D01*
X105152099Y-92456175D01*
X105004890Y-92411524D01*
X104775000Y-92532845D01*
X104521000Y-92532845D01*
X104291110Y-92411524D01*
X104143901Y-92456175D01*
X103881080Y-92581359D01*
X103647731Y-92755412D01*
X103571966Y-92839466D01*
X103547502Y-92758820D01*
X103488537Y-92648506D01*
X103409185Y-92551815D01*
X103312494Y-92472463D01*
X103202180Y-92413498D01*
X103082482Y-92377188D01*
X102958000Y-92364928D01*
X101258000Y-92364928D01*
X101133518Y-92377188D01*
X101013820Y-92413498D01*
X100903506Y-92472463D01*
X100806815Y-92551815D01*
X100727463Y-92648506D01*
X100668498Y-92758820D01*
X100632188Y-92878518D01*
X100619928Y-93003000D01*
X97643107Y-93003000D01*
X97466632Y-92826525D01*
X97223411Y-92664010D01*
X96953158Y-92552068D01*
X96666260Y-92495000D01*
X96373740Y-92495000D01*
X96086842Y-92552068D01*
X95816589Y-92664010D01*
X95573368Y-92826525D01*
X95366525Y-93033368D01*
X95250000Y-93207760D01*
X95133475Y-93033368D01*
X94926632Y-92826525D01*
X94683411Y-92664010D01*
X94413158Y-92552068D01*
X94126260Y-92495000D01*
X93833740Y-92495000D01*
X93546842Y-92552068D01*
X93276589Y-92664010D01*
X93033368Y-92826525D01*
X92826525Y-93033368D01*
X92704805Y-93215534D01*
X92635178Y-93098645D01*
X92440269Y-92882412D01*
X92206920Y-92708359D01*
X91944099Y-92583175D01*
X91796890Y-92538524D01*
X91567000Y-92659845D01*
X91313000Y-92659845D01*
X91083110Y-92538524D01*
X90935901Y-92583175D01*
X90673080Y-92708359D01*
X90439731Y-92882412D01*
X90363966Y-92966466D01*
X90339502Y-92885820D01*
X90280537Y-92775506D01*
X90201185Y-92678815D01*
X90104494Y-92599463D01*
X89994180Y-92540498D01*
X89874482Y-92504188D01*
X89750000Y-92491928D01*
X88050000Y-92491928D01*
X87925518Y-92504188D01*
X87805820Y-92540498D01*
X87695506Y-92599463D01*
X87598815Y-92678815D01*
X87519463Y-92775506D01*
X87460498Y-92885820D01*
X87424188Y-93005518D01*
X87411928Y-93130000D01*
X77672216Y-93130000D01*
X82466121Y-89258000D01*
X116456895Y-89258000D01*
X118892282Y-93032850D01*
M02*
